<?xml version="1.0" encoding="UTF-8"?>
<svg width="56px" height="50px" viewBox="0 0 56 50" version="1.1" xmlns="http://www.w3.org/2000/svg" xmlns:xlink="http://www.w3.org/1999/xlink">
    <title>ic-首页-信息共享体系</title>
    <g id="页面-1" stroke="none" stroke-width="1" fill="none" fill-rule="evenodd">
        <g id="嘉兴跨电商综合试验区首页" transform="translate(-978.000000, -855.000000)" fill="#3F8EF6" fill-rule="nonzero">
            <g id="ic-首页-信息共享体系" transform="translate(978.000000, 855.000000)">
                <path d="M55.657281,36.1137382 C54.9760457,33.7040378 53.293644,31.6498226 50.9852087,30.4091305 C50.8450465,30.3331977 50.7028232,30.2604825 50.5585386,30.1909847 C50.5894567,29.7405363 50.6045722,29.2823659 50.6045722,28.8286999 C50.6068049,20.773956 45.728657,13.4157993 38.0195211,9.84551583 C38.0268498,9.69536635 38.0307432,9.54521687 38.0312013,9.39506739 C38.0312013,4.21491037 33.5315834,0 27.9999873,0 C22.4683911,0 17.9701474,4.21491037 17.9701474,9.39506739 C17.9701474,9.54628937 17.9749569,9.69686784 17.9825146,9.84551583 C10.2731116,13.4156183 5.39467293,20.7738119 5.39677642,28.8286999 C5.39677642,29.2791484 5.41326609,29.7373188 5.44349714,30.1909847 C5.3005867,30.2604825 5.15767625,30.3325542 5.01613994,30.4091305 C0.223143444,32.999209 -1.4244491,38.7565835 1.34306665,43.2430499 C4.11510154,47.7342201 10.2476864,49.2732397 15.0459798,46.681902 C15.1875161,46.6053257 15.3256171,46.5261755 15.4582215,46.4444513 C19.1733743,48.7622457 23.5374317,49.9992281 28.0013614,49.9998891 C32.466688,50.0134875 36.8342941,48.775744 40.5424401,46.4457383 C40.679854,46.526819 40.8172679,46.6059692 40.9546818,46.681902 C44.4683065,48.5808443 48.8572378,48.3108156 52.0754337,45.9976985 C55.2936297,43.6845815 56.7075176,39.7837641 55.657968,36.1137382 L55.657281,36.1137382 Z M28.0013614,3.60358749 C31.4164832,3.60358749 34.1849865,6.19652136 34.1849865,9.39506739 C34.1849865,12.5936134 31.4164832,15.1865473 28.0013614,15.1865473 C24.5862396,15.1865473 21.8177363,12.5936134 21.8177363,9.39506739 C21.8215229,6.19799148 24.5878092,3.60713389 28.0013614,3.60358749 Z M4.67672763,41.4412562 C3.42611865,39.4126685 3.60340143,36.8782523 5.12590791,35.0198215 C6.64841439,33.1613907 9.21630676,32.3449391 11.6321608,32.9511831 C14.0480148,33.5574272 15.8360596,35.466975 16.1625187,37.7893926 C16.4889777,40.1118101 15.2895592,42.3897276 13.1235595,43.5609378 C10.1647524,45.1585159 6.3834948,44.2100178 4.67329229,41.4412562 L4.67672763,41.4412562 Z M18.2999407,43.8640252 C20.486346,40.8792836 20.6475307,36.9836105 18.7143009,33.8493511 C16.7810712,30.7150917 13.0972994,28.8997511 9.24436535,29.1826237 C9.24436535,29.0655071 9.23886027,28.9483905 9.23886027,28.8312739 C9.23236055,22.4258721 12.9523658,16.5258981 18.9444119,13.4381639 C20.6091894,16.7067724 24.1316064,18.7882198 27.9982696,18.7882198 C31.8649327,18.7882198 35.3873498,16.7067724 37.0521273,13.4381639 C43.0397254,16.5290011 46.7583574,22.4254475 46.7583574,28.8286999 C46.7583574,28.9458165 46.7583574,29.0622896 46.754235,29.1794062 C42.8995733,28.8959143 39.214099,30.7125755 37.2811675,33.8489148 C35.3482359,36.9852541 35.5119968,40.8828607 37.702095,43.8672427 C34.7787269,45.5305012 31.4218475,46.4056276 28.0013614,46.3962645 C24.5805762,46.3955332 21.2249247,45.5199861 18.2965054,43.8640252 L18.2999407,43.8640252 Z M51.3232469,41.4412562 C49.8219295,43.8766915 46.6695616,44.9500377 43.8487938,43.9862241 C41.0280261,43.0224105 39.3541837,40.3000213 39.8800134,37.5312766 C40.405843,34.7625318 42.979357,32.7477196 45.981969,32.7540215 C46.6393664,32.7540215 47.29247,32.8532353 47.9160695,33.0481148 C49.6804452,33.5964873 51.0877915,34.8592009 51.7484466,36.4866395 C52.4091018,38.1140782 52.2529576,39.9335392 51.3232469,41.4412562 L51.3232469,41.4412562 Z" id="形状"></path>
            </g>
        </g>
    </g>
</svg>