<?xml version="1.0" encoding="UTF-8"?>
<svg width="56px" height="58px" viewBox="0 0 56 58" version="1.1" xmlns="http://www.w3.org/2000/svg" xmlns:xlink="http://www.w3.org/1999/xlink">
    <title>ic-首页-金融服务体系</title>
    <g id="页面-1" stroke="none" stroke-width="1" fill="none" fill-rule="evenodd">
        <g id="嘉兴跨电商综合试验区首页" transform="translate(-978.000000, -663.000000)" fill="#3F8EF6" fill-rule="nonzero">
            <g id="ic-首页-金融服务体系" transform="translate(978.000000, 663.000000)">
                <path d="M55.1800541,36.3717932 C53.9779599,34.1409595 51.6743306,33.0445188 49.4572892,33.6479729 L49.2297787,33.7085023 L35.9554143,42.5155213 L35.8154078,42.2834922 C35.5353694,41.857802 35.1951864,41.4894822 34.8091112,41.193964 L34.459095,40.921582 L17.780823,33.8598256 C17.187992,33.5956216 16.5467703,33.5088545 15.9169867,33.60762 L8.86416029,34.7274128 C7.86312723,34.9097751 7.12303985,35.8995297 7.11407929,37.0678807 L7.11407929,51.6655399 C7.11639513,52.2969746 7.33619121,52.9014861 7.72511384,53.3460859 C8.11403648,53.7906857 8.64022639,54.0389537 9.18792528,54.0362724 L14.2194082,54.0362724 L31.3439508,57.9505031 C31.9431455,58.0769898 32.5618443,57.959297 33.0940318,57.6175918 L54.6025274,43.7462846 L54.8125371,43.4537261 C56.2479505,41.4319289 56.3961341,38.5764801 55.1800541,36.3717932 Z M52.6599375,41.0527289 L52.6599375,41.1233465 L31.7552198,54.5911247 L14.4819203,50.6466294 L10.045465,50.6466294 L10.045465,37.9657325 L16.3282558,36.9569102 L16.4245102,36.9569102 C16.5175648,36.9555552 16.6098768,36.9761537 16.6957728,37.0174395 L33.0852814,43.948049 C33.5561825,44.2344012 33.7426693,44.9017911 33.5053008,45.4511943 C33.3674718,45.8777569 33.0243848,46.1704568 32.6302603,46.1977229 L32.4727531,46.1977229 L23.3373302,42.4247273 L22.3310336,45.6126059 L31.6414646,49.4864837 L31.7552198,49.4864837 C33.6255395,49.9457153 35.5136196,48.8000616 36.2441776,46.7626634 C36.3054305,46.6012518 36.3579329,46.4196638 36.4104353,46.248164 L36.4104353,46.1271053 L50.3148289,36.9266455 L50.3673313,36.9266455 C51.2784781,36.8024126 52.1704344,37.2930254 52.6599375,38.1876735 C53.1471828,39.0637414 53.1471828,40.1867492 52.6599375,41.0628171 L52.6599375,41.0527289 Z M2.48511503,34.7576775 L0.875040503,34.7576775 C0.391768978,34.7576775 0,35.2093427 0,35.7664998 L0,53.7235375 C0,54.2806947 0.391768978,54.7323599 0.875040503,54.7323599 L2.48511503,54.7323599 C2.96838655,54.7323599 3.36015553,54.2806947 3.36015553,53.7235375 L3.36015553,35.7866763 C3.36015553,35.2295191 2.96838655,34.777854 2.48511503,34.777854 L2.48511503,34.7576775 Z" id="形状"></path>
                <path d="M21.3026266,19.8501052 C21.4981724,20.070669 21.7639459,20.1936099 22.0404826,20.1914209 L25.0751493,20.1914209 L25.0751493,22.7830596 C25.0751493,23.0791801 25.1794399,23.3631722 25.3650782,23.572561 C25.5507166,23.7819498 25.8024963,23.8995832 26.0650287,23.8995832 C26.6032405,23.8862865 27.0333609,23.3902753 27.0332318,22.7830596 L27.0332318,20.1669715 L29.966743,20.1669715 C30.2413791,20.1670022 30.5045619,20.0428407 30.6973963,19.8222718 C30.8902307,19.6017029 30.9966174,19.3031413 30.9927493,18.9933992 C30.9947197,18.6822158 30.8854978,18.3832501 30.6897329,18.1639726 C30.493968,17.9446951 30.2281585,17.8235858 29.9522922,17.8279768 L27.0332318,17.8279768 L27.0332318,16.4262099 L29.966743,16.4262099 C30.2420295,16.4262175 30.505937,16.3023142 30.6999146,16.0819892 C30.8938922,15.8616643 31.0018998,15.5631366 31.0000246,15.2526377 C30.9960037,14.6076766 30.5313363,14.0871997 29.9595176,14.0872152 L27.9364064,14.0872152 L30.3207874,11.2755317 C30.6969851,10.8339222 30.6969851,10.1360786 30.3207874,9.69446907 C30.130525,9.47543935 29.8701078,9.35201082 29.5982477,9.35201082 C29.3263876,9.35201082 29.0659705,9.47543935 28.875708,9.69446907 L26.0867049,12.954392 L23.2977017,9.69446907 C23.1074392,9.47543935 22.8470221,9.35201082 22.575162,9.35201082 C22.3033019,9.35201082 22.0428847,9.47543935 21.8526223,9.69446907 C21.4764246,10.1360786 21.4764246,10.8339222 21.8526223,11.2755317 L24.2514541,14.1035148 L22.083835,14.1035148 C21.8085484,14.1035072 21.5446409,14.2274106 21.3506634,14.4477355 C21.1566858,14.6680604 21.0486782,14.9665882 21.0506033,15.2770871 C21.0545742,15.9220482 21.5192417,16.4425251 22.0910604,16.4425095 L25.1329525,16.4425095 L25.1329525,17.8442764 L22.0332572,17.8442764 C21.7579706,17.8442688 21.4940632,17.9681721 21.3000856,18.188497 C21.106108,18.408822 20.9981004,18.7073497 20.9999752,19.0178486 C20.9980848,19.3297652 21.1070808,19.6295415 21.3026266,19.8501052 Z" id="路径"></path>
                <path d="M26.0682325,33.2514444 C19.5908154,33.2799043 13.7358811,29.2474281 11.2379787,23.0372337 C8.74007631,16.8270393 10.0921093,9.66456569 14.6626103,4.89504863 C19.2331112,0.125531574 26.1201969,-1.30987454 32.1072517,1.2592372 C38.0943065,3.82834894 42,9.89502345 42,16.6258184 C42.0094026,25.7842918 34.881979,33.2220691 26.0682325,33.2514444 Z M14.2443912,11.4942524 C12.2518286,16.4437434 13.3281146,22.1533086 16.9704904,25.9558747 C20.6128662,29.7584408 26.1024525,30.9035125 30.8749333,28.8561995 C35.647414,26.8088865 38.7609225,21.9732579 38.7609225,16.6081505 C38.7609225,9.31395634 33.0878269,3.39128034 26.0682325,3.35724076 C20.9051018,3.3322036 16.2369537,6.54476152 14.2443912,11.4942524 Z" id="形状"></path>
            </g>
        </g>
    </g>
</svg>