<?xml version="1.0" encoding="UTF-8"?>
<svg width="55px" height="57px" viewBox="0 0 55 57" version="1.1" xmlns="http://www.w3.org/2000/svg" xmlns:xlink="http://www.w3.org/1999/xlink">
    <title>ic-首页-风险防控体系</title>
    <g id="页面-1" stroke="none" stroke-width="1" fill="none" fill-rule="evenodd">
        <g id="嘉兴跨电商综合试验区首页" transform="translate(-567.000000, -664.000000)" fill="#3F8EF6" fill-rule="nonzero">
            <g id="ic-首页-风险防控体系" transform="translate(567.016696, 664.009196)">
                <path d="M36.6153846,43.6865938 C37.7388356,43.6865938 38.6495726,44.5369881 38.6495726,45.5860027 L38.6495726,55.0830472 C38.6495726,56.1320618 37.7388356,56.9824561 36.6153846,56.9824561 C35.4919336,56.9824561 34.5811966,56.1320618 34.5811966,55.0830472 L34.5811966,45.5860027 C34.5811966,44.5369881 35.4919336,43.6865938 36.6153846,43.6865938 L36.6153846,43.6865938 Z M44.7521367,37.988367 C45.291637,37.988367 45.8090407,38.1884827 46.1905249,38.544691 C46.5720092,38.9008993 46.7863248,39.3840214 46.7863248,39.887776 L46.7863248,55.0830472 C46.7863248,56.1320618 45.8755878,56.9824561 44.7521368,56.9824561 C43.6286857,56.9824561 42.7179487,56.1320618 42.7179487,55.0830472 L42.7179487,39.887776 C42.7179487,39.3840214 42.9322643,38.9008993 43.3137486,38.544691 C43.6952328,38.1884827 44.2126365,37.988367 44.7521367,37.988367 L44.7521367,37.988367 Z M52.8888889,47.4854116 C54.0123399,47.4854116 54.9230769,48.3358059 54.9230769,49.3848205 L54.9230769,55.0830472 C54.9230769,56.1320618 54.0123399,56.9824561 52.8888889,56.9824561 C51.7654379,56.9824561 50.8547009,56.1320618 50.8547009,55.0830472 L50.8547009,49.3848205 C50.8547009,48.3358059 51.7654379,47.4854116 52.8888889,47.4854116 L52.8888889,47.4854116 Z M25.9867521,0.358227388 C25.9867521,0.686825136 34.8863247,7.25308172 47.7017094,7.25308178 C48.7228718,7.25308178 49.7450513,7.85424469 49.8315042,8.76786035 L49.8376068,8.89512075 L49.8376068,32.0650603 C49.8376068,32.8865547 49.666735,33.8315106 49.3473675,34.8619399 C48.1431282,33.8248627 47.1504444,33.203756 45.7132906,32.6244362 C45.7425525,32.438718 45.7612255,32.2516791 45.7692307,32.0641106 L45.7692307,11.2655831 C35.4457265,10.9379351 27.6141026,6.70225318 24.7662393,4.74871112 C19.1315384,9.60170086 10.1943333,10.784083 5.11394873,11.1877073 L4.06837605,11.2636837 L4.06837605,31.0555245 C4.06837605,37.5723965 15.5106838,52.2339339 24.4102564,52.2339339 C25.4853248,52.2339339 26.5939573,52.0316468 27.7137778,51.6660106 C28.2179518,52.3833587 28.79567,53.0532063 29.4387692,53.6660882 C29.8608632,54.0697126 30.3022821,54.4448458 30.7579402,54.7933873 C28.8163077,55.5816421 26.8482307,56.0327517 24.9188034,56.0327517 C13.9931795,56.0327517 0.27766664,39.9428588 0.0040683975,31.6566874 L0,31.4078649 L0,8.73746981 C0.00203419875,8.18284244 0.0305128025,7.88273581 0.355982875,7.58167947 C0.652974343,7.30816459 0.948948712,7.26257876 1.45241028,7.25498114 L1.77991455,7.25308178 C7.11965815,7.25308178 18.867094,5.93964049 23.4948718,0.686825136 C24.2068376,0.0296296404 25.2747864,-0.298968107 25.9867521,0.358227388 Z M25.4273504,36.0889581 C26.3661282,36.0889581 27.3059231,36.8487217 27.9070257,37.7357456 C27.2639194,38.9425706 26.825413,40.2353249 26.6071795,41.5678031 C26.2461111,41.7102588 25.8463932,41.7871849 25.4273504,41.7871849 C23.7318547,41.7871849 22.3760684,40.5212288 22.3760684,38.9380715 C22.3760684,37.3549142 23.7318547,36.0889581 25.4273504,36.0889581 Z M25.9358974,15.1954601 C28.3291196,15.1954601 28.4694786,16.9714075 28.4786325,18.0160824 L28.4786325,18.2031741 L27.9131282,31.2350186 C27.9131282,32.2369568 27.0658889,33.2398447 26.2186496,33.2398447 C25.1425641,33.2398447 24.3217692,32.3309776 24.0024017,31.378424 L23.9586667,31.2350186 L23.3931624,18.2031741 L23.3972307,17.9486533 C23.4358803,16.6637032 23.8172906,15.1954601 25.9358974,15.1954601 L25.9358974,15.1954601 Z" id="形状"></path>
            </g>
        </g>
    </g>
</svg>