<?xml version="1.0" encoding="UTF-8"?>
<svg width="50px" height="58px" viewBox="0 0 50 58" version="1.1" xmlns="http://www.w3.org/2000/svg" xmlns:xlink="http://www.w3.org/1999/xlink">
    <title>ic-首页-电商信用体系</title>
    <g id="页面-1" stroke="none" stroke-width="1" fill="none" fill-rule="evenodd">
        <g id="嘉兴跨电商综合试验区首页" transform="translate(-154.000000, -663.000000)" fill="#3F8EF6" fill-rule="nonzero">
            <g id="ic-首页-电商信用体系" transform="translate(154.000000, 663.000000)">
                <path d="M43.5010998,38.2763771 C51.0080981,30.71502 52.1295249,19.5144029 46.2490891,10.8299362 C40.3686532,2.14546938 28.9113175,-1.91840405 18.1735744,0.871657837 C7.43583131,3.66171972 0.0196793343,12.6296217 0.000365156269,22.8469643 C-0.033505188,28.5142359 2.29000616,33.9809786 6.49939178,38.1369547 L0.29520858,49.671835 C-0.0855532008,50.4446791 -0.00897122605,51.3419724 0.4982915,52.0513107 C1.03167175,52.7721941 1.96054439,53.1596565 2.9048241,53.055152 L8.39821708,52.413809 L11.2007614,56.8102621 C11.6564808,57.5331211 12.4926167,57.9845871 13.4042111,58 L13.4955984,58 C14.4304055,57.9714905 15.2744186,57.4801683 15.699048,56.7173139 L21.7001483,45.6378801 C22.8254083,45.7951382 23.96408,45.8573655 25.1017872,45.8237766 C26.198435,45.8237766 27.3052369,45.7308284 28.4018847,45.6378801 L34.3014435,56.7173139 C34.7260729,57.4801683 35.570086,57.9714905 36.5048932,58 L36.5962805,58 C37.5078748,57.9845871 38.3440108,57.5331211 38.7997302,56.8102621 L41.6022745,52.413809 L47.0042801,53.055152 C47.9248179,53.1448695 48.8307802,52.7934742 49.4006586,52.1256693 C49.9079213,51.416331 49.9845033,50.5190377 49.6037415,49.7461936 L43.5010998,38.2763771 Z M13.4854442,53.380471 L10.4392004,48.5471609 L4.50917917,49.2535678 L9.42378582,40.1353425 C12.0654279,42.082764 15.087488,43.5526625 18.3289719,44.4667319 L13.4854442,53.380471 Z M3.36176067,22.8469643 C3.36176067,11.9077076 13.0496404,3.03968793 25.0002458,3.03968793 C36.9508511,3.03968793 46.6387309,11.9077076 46.6387309,22.8469643 C46.6387309,28.1001806 44.3589684,33.1382388 40.3009653,36.8528237 C36.2429622,40.5674086 30.7391288,42.6542406 25.0002458,42.6542406 C13.0496404,42.6542406 3.36176067,33.7862209 3.36176067,22.8469643 Z M39.5206745,48.6029299 L36.3221185,53.6221365 L31.417666,44.4295526 C34.7564479,43.4777536 37.8848043,41.9924517 40.6579389,40.0423942 L45.6842411,49.4301695 L39.5206745,48.6029299 Z" id="形状"></path>
                <path d="M29.28871,35.1244593 L25.104167,33.1117666 L20.7901025,35.179351 C20.238893,35.3955148 19.6459165,35.5075251 19.0465429,35.5087007 C17.8682881,35.4996525 16.7522821,35.0215916 15.9876635,34.1983756 C15.2230448,33.3751596 14.8850559,32.2877972 15.0612639,31.2180057 L15.7387613,26.9913509 L12.3811637,23.9723117 C11.3372447,23.0157377 10.9539731,21.607997 11.384844,20.3128703 L11.384844,20.1939385 C11.8895136,18.9146002 13.1027572,17.9821521 14.563104,17.7512613 L19.25577,17.1108591 L21.3679679,13.2227026 C22.0441094,11.9856622 23.4224691,11.2047601 24.9298111,11.2047601 C26.437153,11.2047601 27.8155127,11.9856622 28.4916542,13.2227026 L30.6138153,17.1108591 L35.2467021,17.7421127 C36.8144544,17.868817 38.1441443,18.8513761 38.6142629,20.2305329 C38.9768396,21.5047108 38.6629006,22.8612816 37.7673911,23.8899743 L37.6179432,24.0363519 L34.280272,27.0370939 L35.1171806,31.4192749 C35.2898004,32.7472195 34.6831723,34.0597212 33.523069,34.8682984 L33.4334002,34.9323387 C32.7448352,35.3304095 31.9454984,35.5369414 31.1319016,35.5269979 C30.4917693,35.5262941 29.8606441,35.3884613 29.28871,35.1244593 Z M25.104167,29.7176347 L30.7831896,32.4622157 C31.0311795,32.5749959 31.3222924,32.5749959 31.5702822,32.4622157 C31.783915,32.3031338 31.8931286,32.0541523 31.859215,31.8035163 L30.7632632,26.0673419 L35.236739,22.0419564 C35.4558628,21.7827587 35.5396743,21.4481539 35.4658925,21.127096 C35.4658925,21.0539072 35.3762237,20.8160435 34.838211,20.7337061 L28.5414702,19.882886 L25.6621061,14.5949932 C25.5289674,14.3906839 25.2887355,14.2656133 25.029443,14.2656133 C24.7701506,14.2656133 24.5299187,14.3906839 24.39678,14.5949932 L21.5174159,19.882886 L15.1907854,20.7428547 C14.9186185,20.7881749 14.6899084,20.956872 14.5830304,21.1911363 C14.4870812,21.434755 14.5487398,21.7072263 14.7424416,21.8955787 L19.2756964,25.9667073 L18.3491191,31.7577733 C18.2921364,31.988799 18.3948922,32.2283141 18.6081622,32.3615811 L18.7177574,32.4439185 C18.8170915,32.5157346 18.9400433,32.554443 19.0664693,32.5537277 C19.2204773,32.5547037 19.3730716,32.5266801 19.5148132,32.4713643 L25.104167,29.7176347 Z" id="形状"></path>
            </g>
        </g>
    </g>
</svg>