<?xml version="1.0" encoding="UTF-8"?>
<svg width="55px" height="49px" viewBox="0 0 55 49" version="1.1" xmlns="http://www.w3.org/2000/svg" xmlns:xlink="http://www.w3.org/1999/xlink">
    <title>ic-首页-统计监测体系</title>
    <g id="页面-1" stroke="none" stroke-width="1" fill="none" fill-rule="evenodd">
        <g id="嘉兴跨电商综合试验区首页" transform="translate(-567.000000, -856.000000)" fill="#3F8EF6" fill-rule="nonzero">
            <g id="ic-首页-统计监测体系" transform="translate(567.116071, 855.996492)">
                <path d="M54.4039439,1.02040816 L54.2631553,1.02040816 L43.8166363,2.31190984 L43.7040054,2.31190984 C43.4505858,2.31190984 43.2253239,2.48248553 43.1971662,2.70179714 C43.1690085,2.84800487 43.2253239,3.01858057 43.3942703,3.11605239 L46.4353055,5.74779165 L28.8367224,20.9777642 L19.7417746,13.1069144 L19.6291437,13.0094426 C19.488355,12.8876028 19.3757241,12.790131 19.2349355,12.7170271 C18.8407272,12.4489796 18.4746767,12.3271398 18.0804684,12.3271398 C17.6017869,12.3271398 17.0949477,12.5464514 16.5881086,12.9850746 C16.4473199,13.1069144 16.3065312,13.2531221 16.1939003,13.3749619 L8.76025879,19.8324703 C7.7465804,20.7097167 7.7465804,21.5382272 8.76025879,22.4154737 C9.26709798,22.8540969 9.77393718,23.0734085 10.2526186,23.0734085 C10.7313001,23.0734085 11.2381393,22.8540969 11.7449785,22.4154737 L18.1367839,16.8839476 L27.2035739,24.7304295 C27.2317316,24.7791654 27.2880471,24.8035334 27.3162048,24.8522693 C27.823044,25.2908925 28.3298832,25.5102041 28.8085647,25.5102041 C29.2872461,25.5102041 29.7940853,25.2908925 30.3009245,24.8522693 L49.4200252,8.30642705 L52.3484294,10.8406945 C52.4329026,10.9381663 52.5736913,10.9869022 52.7144799,10.9869022 C52.8271109,10.9869022 52.9397418,10.9381663 53.024215,10.8894304 C53.1086882,10.8163265 53.1650037,10.7188547 53.1931614,10.5970149 L54.8544676,1.53213524 C54.8826254,1.28845568 54.6855213,1.06914408 54.4039439,1.02040816 Z" id="路径"></path>
                <g id="形状-5">
                    <path d="M40.6833938,45.2311537 L13.8952864,45.2311537 C12.7535896,45.2311537 11.8068165,46.0807997 11.8068165,47.1053728 L11.8068165,48.9795918 L42.7440174,48.9795918 L42.7440174,47.1053728 C42.7718637,46.0807997 41.8250906,45.2311537 40.6833938,45.2311537 L40.6833938,45.2311537 Z M52.4902103,18.3673469 C51.3485134,18.3673469 50.4017404,19.2169929 50.4017404,20.241566 L50.4017404,34.6355685 L4.17693981,34.6355685 L4.17693981,3.74843815 L31.8282814,3.74843815 C32.9699782,3.74843815 33.9167513,2.89879217 33.9167513,1.87421908 C33.9167513,1.37442732 33.6939811,0.899625156 33.3041334,0.549770929 C32.9142857,0.199916701 32.3852067,0 31.8282814,0 L3.67570703,0 C1.64292966,0 0,1.47438567 0,3.29862557 L0,35.1103707 C0,36.9346106 1.64292966,38.3840067 3.67570703,38.3840067 L50.9308194,38.3840067 C52.9635968,38.3840067 54.6065265,36.909621 54.6065265,35.1103707 L54.6065265,20.241566 C54.5786802,19.2169929 53.6319072,18.3673469 52.4902103,18.3673469 Z" id="形状"></path>
                </g>
            </g>
        </g>
    </g>
</svg>