<?xml version="1.0" encoding="UTF-8"?>
<svg width="56px" height="50px" viewBox="0 0 56 50" version="1.1" xmlns="http://www.w3.org/2000/svg" xmlns:xlink="http://www.w3.org/1999/xlink">
    <title>ic-首页-智能物流体系</title>
    <g id="页面-1" stroke="none" stroke-width="1" fill="none" fill-rule="evenodd">
        <g id="嘉兴跨电商综合试验区首页" transform="translate(-154.000000, -855.000000)" fill="#3F8EF6" fill-rule="nonzero">
            <g id="ic-首页-智能物流体系" transform="translate(182.399137, 880.427734) scale(-1, 1) translate(-182.399137, -880.427734) translate(154.817048, 855.927734)">
                <path d="M2.28814826,18.7437866 C1.84445398,19.5075859 1.45794575,20.2258142 1.14029974,20.8751669 C0.130175667,22.9358539 0,23.8940111 0,24.5001947 L0,38.1784721 C0,40.5544551 1.6167416,42.4869983 3.60445941,42.4869983 L5.59809676,42.4869983 C6.26401834,46.233159 9.08590313,49 12.3248714,49 C15.5642198,49 18.3843125,46.2332239 19.0499082,42.4869983 L19.9531546,42.4869983 C20.7489803,42.4869983 21.5086371,42.1781939 22.1321986,41.6086876 C22.7578239,42.1781939 23.5174263,42.4869983 24.313252,42.4869983 L33.9348468,42.4869983 C34.6008769,46.233159 37.4209153,49 40.6619472,49 C43.9010241,49 46.7210625,46.2332239 47.3870927,42.4869983 L51.5597197,42.4869983 C53.5474375,42.4869983 55.1641791,40.5544551 55.1641791,38.1784721 L55.1641791,4.30865606 C55.1641791,1.93254322 53.5474375,0 51.5597197,0 L24.3115142,0 C22.3234162,0 20.7070005,1.93254322 20.7070005,4.30865606 L20.7070005,9.21641999 C20.4586376,9.15240538 20.2052706,9.12024158 19.9511996,9.12047444 L10.687167,9.12047444 C10.0866863,9.12047444 9.2371502,9.38572038 7.49604387,11.350332 C6.74393589,12.1986516 5.8830495,13.2986498 5.00494756,14.5336078 L4.99560663,14.5471752 L4.33555028,15.4757957 L4.35075645,15.4757957 C4.32208196,15.5169523 4.29525393,15.5581738 4.26663375,15.5993304 C3.56047013,16.6422676 2.87760453,17.7307107 2.28820257,18.7437217 C2.29021195,18.7415795 2.29021195,18.7437217 2.28820257,18.7437217 L2.28814826,18.7437866 Z M40.6599922,45.594842 C38.4406518,45.594842 36.6343762,43.4361321 36.6343762,40.7830885 C36.6343762,38.1303045 38.4405975,35.9715298 40.6599922,35.9715298 C42.8792239,35.9715298 44.6834358,38.1303045 44.6834358,40.7830885 C44.6834358,43.436197 42.8792239,45.594842 40.6599922,45.594842 Z M23.5577227,13.4290656 L23.5577227,4.30872097 C23.5577227,3.81003784 23.8963315,3.40528786 24.313252,3.40528786 L51.5597197,3.40528786 C51.9769118,3.40528786 52.3155206,3.81003784 52.3155206,4.30872097 L52.3155206,38.1804845 C52.3155206,38.6791676 51.9769118,39.0839176 51.5597197,39.0839176 L47.3832368,39.0839176 C46.7345308,35.3906633 44.0560184,32.6850378 40.8628859,32.5729932 L40.5257977,32.5729932 C40.5240599,32.5705913 40.5181946,32.5729932 40.5126552,32.5729932 L40.4686117,32.5729932 L40.4686117,32.5705913 L40.4476489,32.5705913 C37.258155,32.6895819 34.5834985,35.3930002 33.9347924,39.0815806 L24.3133063,39.0815806 C23.8964401,39.0815806 23.5577227,38.6768306 23.5577227,38.1784721 L23.5577227,13.4291305 L23.5577227,13.4290656 Z M12.3232422,45.5949069 C10.105694,45.5949069 8.2976805,43.436197 8.2976805,40.7831534 C8.2976805,38.1303695 10.1038475,35.9715947 12.3232422,35.9715947 C14.5424739,35.9715947 16.3486952,38.1303695 16.3486952,40.7831534 C16.3486952,43.436262 14.5424739,45.5949069 12.3232422,45.5949069 Z M2.84311912,38.1784072 L2.84311912,28.1589139 L13.4059757,28.1589139 C15.3938021,28.1589139 17.0104894,26.2267601 17.0104894,23.8503876 L17.0104894,18.638623 C17.0104894,16.2625751 15.3937478,14.3300968 13.4059757,14.3300968 L9.01318506,14.3300968 C9.08791252,14.2431746 9.15856689,14.1583296 9.23123066,14.0738742 C10.2013299,12.9439498 10.6698972,12.6124249 10.8172884,12.5255675 L19.9472894,12.5255675 C20.3644815,12.5255675 20.7031446,12.9304474 20.7031446,13.4290656 L20.7031446,38.1668521 C20.7031446,38.6655353 20.3644272,39.0702853 19.9472894,39.0702853 L19.0443688,39.0702853 C18.4225451,35.5732714 15.9067388,32.8908858 12.9029231,32.5864957 C12.8798966,32.5844184 12.8589338,32.5844184 12.8378624,32.5819516 L12.8299877,32.5819516 L12.8299877,32.595519 L12.8281956,32.595519 L12.8281956,32.5819516 L12.8205925,32.5819516 L12.8205925,32.5935066 L12.8129894,32.5819516 L12.8129894,32.5910398 L12.81098,32.5910398 L12.81098,32.5819516 L12.8013133,32.5889625 L12.7996297,32.5889625 L12.7996297,32.5819516 L12.7916465,32.5819516 L12.7916465,32.5864957 L12.7440186,32.5774074 L12.5297745,32.5774074 L12.5201078,32.5750705 L12.5201078,32.5800041 L12.512559,32.5750705 L12.512559,32.5820165 L12.510441,32.5820165 L12.5028922,32.5750705 L12.5028922,32.5844184 L12.5028922,32.5750705 L12.4932797,32.5844184 L12.4856766,32.5750705 L12.4856766,32.5844184 L12.4836673,32.5844184 L12.4760642,32.5774724 L12.4760642,32.5820165 L12.4743263,32.5820165 L12.4743263,32.5774724 L12.4646595,32.5820165 L12.4646595,32.5800041 L12.189102,32.5800041 C12.1832368,32.5774074 12.1776431,32.5800041 12.1738959,32.5800041 L12.1239327,32.5800041 L12.1239327,32.5750705 L12.1239327,32.5800041 L12.104925,32.5800041 C12.102807,32.5820165 12.1011235,32.5820165 12.0991141,32.5820165 L12.0991141,32.5729283 L12.0991141,32.5820165 L12.0969418,32.5820165 C12.0953126,32.5844184 12.0931403,32.5844184 12.091511,32.5844184 L12.0017403,32.5844184 C11.9900642,32.5865606 11.974858,32.5865606 11.961444,32.5865606 L11.9000762,32.5865606 C11.8849244,32.5889625 11.8677631,32.5911047 11.8525569,32.5955839 C11.8484839,32.5981156 11.8446823,32.5981156 11.8429445,32.5981156 C11.8391429,32.5981156 11.8371335,32.6005175 11.8332777,32.6005175 C11.8294761,32.6005175 11.8274668,32.6025948 11.8236109,32.6025948 C11.8197551,32.6025948 11.8180715,32.6049967 11.81427,32.6049967 C11.8101969,32.6049967 11.808459,32.607074 11.8046575,32.607074 L11.8046575,32.5910398 C8.77205866,32.8631668 6.22551415,35.5596391 5.59809676,39.0813209 L3.6065231,39.0813209 C3.189331,39.0813209 2.8507222,38.6766359 2.8507222,38.1782773 L2.84311912,38.1782773 L2.84311912,38.1784072 Z M2.84865851,24.7518733 L2.84865851,24.5207731 C2.85827098,24.4430039 2.95580769,23.8482454 3.7747685,22.2452148 L3.9662033,21.8770124 L3.5721463,21.5772962 L3.97380639,21.8609782 L3.79399344,21.7168651 L3.98727471,21.8404648 C4.40414097,21.0559574 4.92256271,20.1685585 5.48519096,19.2699941 C5.48893819,19.2629832 5.49279404,19.2560372 5.49686712,19.2514931 C5.81922165,18.7380716 6.1495791,18.2318996 6.48776625,17.7332425 L13.4136331,17.7332425 C13.8308252,17.7332425 14.1694883,18.1381223 14.1694883,18.636351 L14.1694883,23.8484402 C14.1694883,24.3470584 13.8308795,24.7518733 13.4135788,24.7518733 L2.84865851,24.7518733 L2.84865851,24.7518733 Z" id="形状"></path>
            </g>
        </g>
    </g>
</svg>