<?xml version="1.0" encoding="UTF-8"?>
<svg width="50px" height="36px" viewBox="0 0 50 36" version="1.1" xmlns="http://www.w3.org/2000/svg" xmlns:xlink="http://www.w3.org/1999/xlink">
    <title>ic-统计监测-跨境支付企业</title>
    <g id="页面-1" stroke="none" stroke-width="1" fill="none" fill-rule="evenodd">
        <g id="嘉兴跨电商综合试验区-统计监测" transform="translate(-768.000000, -1898.000000)" fill-rule="nonzero">
            <g id="ic-统计监测-跨境支付企业" transform="translate(768.000000, 1898.000000)">
                <path d="M0,13.4923739 C0,20.9440062 6.04428727,26.9847477 13.5002935,26.9847477 C20.9562997,26.9847477 27.000587,20.9440062 27.000587,13.4923739 C27.000587,6.04074153 20.9562997,-2.27373675e-13 13.5002935,-2.27373675e-13 C6.04428727,-2.27373675e-13 0,6.04074153 0,13.4923739 Z" id="路径备份" fill="#D0F1FF"></path>
                <path d="M36.5225,3.83173531 L44.7881,11.4085035 C45.4811,12.0437508 45.7772,12.9025722 45.6764,13.7250937 L48.2,13.7250937 C49.1941125,13.7250937 50,14.4638207 50,15.3750867 L50,34.3500069 C50,35.2612729 49.1941125,36 48.2,36 L15.8,36 C14.8058875,36 14,35.2612729 14,34.3500069 L14,15.3750867 C14,14.4638207 14.8058875,13.7250937 15.8,13.7250937 L17.7017,13.7250937 L21.5456,5.42315361 C21.832231,4.80369121 22.3755972,4.31398941 23.056144,4.06179547 C23.7366907,3.80960152 24.4986605,3.81557777 25.1744,4.07840928 C25.6631,4.26815849 26.2274,4.47605762 26.8997,4.7144816 C27.2489,4.83823108 27.608,4.96445555 28.0769,5.12697988 C29.2667,5.54112813 29.7347,5.70447744 30.0236,5.80925199 L32.1953,3.8111104 C33.3842,2.72211499 35.3219,2.73036494 36.5225,3.83173531 Z M48.2,16.6125954 L15.8,16.6125954 L15.8,34.2125954 L48.2,34.2125954 L48.2,16.6125954 Z M41,22.9650687 C42.9882251,22.9650687 44.6,24.5902682 44.6,26.5950534 C44.6,28.5998386 42.9882251,30.2250381 41,30.2250381 C39.0117749,30.2250381 37.4,28.5998386 37.4,26.5950534 C37.4,24.5902682 39.0117749,22.9650687 41,22.9650687 Z M41,24.7800611 C40.0058875,24.7800611 39.2,25.5926609 39.2,26.5950534 C39.2,27.597446 40.0058875,28.4100458 41,28.4100458 C41.6430781,28.4100458 42.2373067,28.0641103 42.5588458,27.5025496 C42.8803848,26.940989 42.8803848,26.2491178 42.5588458,25.6875572 C42.2373067,25.1259966 41.6430781,24.7800611 41,24.7800611 Z M23.2961,6.41415332 L19.7672,14.7976031 L21.4169,14.7976031 L28.5548,7.57574845 L27.4019,7.13379782 C26.9294,6.9532061 26.5658,6.81345166 26.2112,6.67460474 C25.6141086,6.44285584 25.0206365,6.20173505 24.431,5.95133027 C23.9908559,5.76322505 23.48281,5.97041102 23.2961,6.41415332 Z M33.6704,5.37688519 L24.359,14.7976031 L43.5524,14.7976031 C43.6982259,14.42583 43.6104493,14.0022061 43.3292,13.7204051 L35.0636,5.38596018 C34.6812852,4.99571601 34.057683,4.99165401 33.6704,5.37688519 Z" id="形状结合" fill="#3F8EF6"></path>
            </g>
        </g>
    </g>
</svg>