<?xml version="1.0" encoding="UTF-8"?>
<svg width="50px" height="37px" viewBox="0 0 50 37" version="1.1" xmlns="http://www.w3.org/2000/svg" xmlns:xlink="http://www.w3.org/1999/xlink">
    <title>ic-统计监测-跨境仓储企业</title>
    <g id="页面-1" stroke="none" stroke-width="1" fill="none" fill-rule="evenodd">
        <g id="嘉兴跨电商综合试验区-统计监测" transform="translate(-1078.000000, -1897.000000)" fill-rule="nonzero">
            <g id="ic-统计监测-跨境仓储企业" transform="translate(1078.000000, 1897.000000)">
                <path d="M0,13.4623334 C0,20.8973749 6.04428727,26.9246669 13.5002935,26.9246669 C20.9562997,26.9246669 27.000587,20.8973749 27.000587,13.4623334 C27.000587,6.02729198 20.9562997,-2.26867434e-13 13.5002935,-2.26867434e-13 C6.04428727,-2.26867434e-13 0,6.02729198 0,13.4623334 Z" id="路径备份" fill="#D0F1FF"></path>
                <g id="编组-12" transform="translate(14.000000, 1.995547)" fill="#3F8EF6">
                    <path d="M2,14.0530439 L2,32.0079299 C2,32.5152567 2.47756293,32.9265263 3.06666667,32.9265263 L32.9333333,32.9265263 C33.5224371,32.9265263 34,32.5152567 34,32.0079299 L34,14.0530439 L18,1.99554705 L2,14.0530439 Z M0.36000028,13.0943614 L17.3011765,0.228582977 C17.700889,-0.0761943258 18.299111,-0.0761943258 18.6988235,0.228582977 L35.6399997,13.0943614 C35.8690319,13.2689963 36,13.520839 36,13.7854375 L36,32.1651209 C36,33.6877437 34.5778454,34.9220734 32.8235292,34.9220734 L3.17647082,34.9220734 C1.42215459,34.9220734 0,33.6877437 0,32.1651209 L0,13.7854375 C0,13.520839 0.130968072,13.2689963 0.36000028,13.0943614 Z" id="形状"></path>
                    <path d="M16.4188238,5.87104076 C16.8003551,5.51605215 17.3961851,5.53890489 17.7496473,5.92208379 C18.1031095,6.30526269 18.0803551,6.9036657 17.6988238,7.25865435 L12.4903532,12.0945066 C12.1083021,12.4489732 11.5124721,12.425274 11.1595297,12.0415731 C10.8065873,11.6578721 10.8301845,11.0594691 11.2122355,10.7050025 L16.4188238,5.87104076 L16.4188238,5.87104076 Z M9.17176496,12.6011557 C9.55381606,12.2461671 10.1500674,12.269443 10.5035296,12.653144 C10.8569919,13.0368449 10.833816,13.6356711 10.451765,13.9906598 L6.52329437,17.637399 C6.1406228,17.9828945 5.55261283,17.955693 5.20318561,17.5763305 C4.85375839,17.1969679 4.8724623,16.6060911 5.24517672,16.2497854 L9.17176496,12.6011557 L9.17176496,12.6011557 Z" id="形状" transform="translate(11.476724, 11.749375) rotate(5.000000) translate(-11.476724, -11.749375) "></path>
                    <path d="M11.411765,28.4104527 L11.411765,33.1139712 L17.0343532,33.1139712 L17.0343532,28.4104527 L11.411765,28.4104527 Z M11.411765,26.519971 L17.0343532,26.519971 C18.073948,26.519971 18.9167061,27.3663685 18.9167061,28.4104527 L18.9167061,33.1139712 C18.9167061,34.1580555 18.073948,35.0044529 17.0343532,35.0044529 L11.411765,35.0044529 C10.3721701,35.0044529 9.52941202,34.1580555 9.52941202,33.1139712 L9.52941202,28.4104527 C9.52941202,27.3663685 10.3721701,26.519971 11.411765,26.519971 L11.411765,26.519971 Z" id="形状"></path>
                    <path d="M18.9411767,22.7390075 L18.9411767,33.1139712 L24.563765,33.1139712 L24.563765,22.7390075 L18.9411767,22.7390075 Z M18.9411767,20.8485258 L24.563765,20.8485258 C25.062996,20.8485258 25.5417798,21.047701 25.8947895,21.4022351 C26.2477991,21.7567692 26.4461179,22.2376206 26.4461179,22.7390075 L26.4461179,33.1139712 C26.4461179,33.6153582 26.2477991,34.0962096 25.8947895,34.4507437 C25.5417798,34.8052778 25.062996,35.0044529 24.563765,35.0044529 L18.9411767,35.0044529 C17.9015819,35.0044529 17.0588238,34.1580555 17.0588238,33.1139712 L17.0588238,22.7390075 C17.0588238,21.6949233 17.9015819,20.8485258 18.9411767,20.8485258 L18.9411767,20.8485258 Z" id="形状"></path>
                </g>
            </g>
        </g>
    </g>
</svg>