<?xml version="1.0" encoding="UTF-8"?>
<svg width="43px" height="37px" viewBox="0 0 43 37" version="1.1" xmlns="http://www.w3.org/2000/svg" xmlns:xlink="http://www.w3.org/1999/xlink">
    <title>ic-统计监测-跨境电商企业</title>
    <g id="页面-1" stroke="none" stroke-width="1" fill="none" fill-rule="evenodd">
        <g id="嘉兴跨电商综合试验区-统计监测" transform="translate(-146.000000, -1897.000000)" fill-rule="nonzero">
            <g id="ic-统计监测-跨境电商企业" transform="translate(146.000000, 1897.000000)">
                <path d="M0,13.4923739 C0,20.9440062 6.04428727,26.9847477 13.5002935,26.9847477 C20.9562997,26.9847477 27.000587,20.9440062 27.000587,13.4923739 C27.000587,6.04074153 20.9562997,-2.27373675e-13 13.5002935,-2.27373675e-13 C6.04428727,-2.27373675e-13 0,6.04074153 0,13.4923739 Z" id="路径备份-2" fill="#D0F1FF"></path>
                <g id="编组-3" transform="translate(4.000000, 0.000000)" fill="#3F8EF6">
                    <path d="M13.4417203,27.7702133 C13.3959101,27.7702133 13.3539174,27.7373148 13.3462823,27.6934502 L7.50548056,0.46812056 L7.4711229,0.475431336 C7.47494042,0.424255904 7.43294773,0.380391248 7.37950248,0.37673586 L0.217839638,0 C0.164394393,-0.00342448883 0.118584183,0.0367847789 0.114766666,0.0879602105 L0,2.12035592 C-0.00357637716,2.17153136 0.0384163154,2.21539601 0.0918615605,2.2190514 L5.52800649,2.50782705 C5.5738167,2.51148244 5.61199188,2.54072554 5.61962691,2.5845902 L11.4947864,29.9817231 L11.5138739,29.9780677 L11.5138739,30 L38.9007445,30 C38.9541898,30 39,29.9561353 39,29.9049599 L39,27.8652534 C39,27.814078 38.9541898,27.7702133 38.9007445,27.7702133 L13.4417203,27.7702133 Z" id="路径"></path>
                    <path d="M34.6500855,25.9132173 L16.460156,25.9132173 C16.3586173,25.9132173 16.2788369,25.827946 16.2788369,25.7194188 L16.2788369,23.7814343 C16.2788369,23.6729072 16.3586173,23.5876359 16.460156,23.5876359 L32.8405212,23.5876359 C32.9275543,23.5876359 33.0037083,23.5217444 33.0182139,23.4287211 L35.6038239,8.46748084 C35.6255822,8.3473258 35.538549,8.23879867 35.4261312,8.23879867 L13.4031164,8.23879867 C13.3015777,8.23879867 13.2217973,8.15352735 13.2217973,8.04500022 L13.2217973,6.10701572 C13.2217973,5.99848859 13.3015777,5.91321727 13.4031164,5.91321727 L38.0407522,5.91321727 C38.1531701,5.91321727 38.2402032,6.0217444 38.2184449,6.14189944 L34.8277782,25.7543025 C34.8132727,25.8434498 34.7371187,25.9132173 34.6500855,25.9132173 L34.6500855,25.9132173 Z" id="路径"></path>
                    <path d="M23.2091959,16.7568921 C23.6059938,17.1528078 24.2290034,17.1528078 24.6777188,16.7568921 L28.7495321,12.694131 C28.8607839,12.5831266 28.8607839,12.4129198 28.805158,12.2982153 C28.2563161,11.5729865 27.5368883,10.9920635 26.7099171,10.6072482 C24.5627586,9.58970786 22.0188024,9.87461915 20.2647334,11.2843751 C18.781377,12.4758223 17.946989,14.2925944 18.0026149,16.1907696 C18.0582407,18.1074456 19.0224224,19.7984127 20.602197,20.9269574 C21.6220045,21.6040843 22.8086897,22 23.9953748,22 C25.2376858,22 26.4837052,21.6040843 27.4998044,20.8714552 C29.1759971,19.6652074 30.1179284,17.6856289 29.9881348,15.6246472 C29.980718,15.2398319 29.7322558,14.9031186 29.3651251,14.7810137 C28.994286,14.6219074 28.5641126,14.7107109 28.2896917,15.0067227 C28.0634798,15.2324316 28.0078539,15.5136428 28.0078539,15.7985541 C28.0634798,17.1306069 27.4478869,18.3997572 26.3687451,19.1841883 C25.0300159,20.1462265 23.2314463,20.1906282 21.844508,19.2951927 C20.8469508,18.6328665 20.2016908,17.5524236 20.090439,16.3609764 C19.9680621,15.1732293 20.3834019,13.9965826 21.2214983,13.1455489 C22.4934764,11.8652981 24.4700489,11.609988 26.0275731,12.5239242 L23.2017791,15.343436 C22.8161065,15.6875497 22.8161065,16.3646765 23.2091959,16.7568921 Z" id="路径"></path>
                    <path d="M15.3404422,34.3015251 C15.3404422,35.2655973 15.8550704,36.1564368 16.6904715,36.6384729 C17.5258726,37.120509 18.5551292,37.120509 19.3905303,36.6384729 C20.2259313,36.1564368 20.7405596,35.2655973 20.7405596,34.3015251 C20.7405596,33.3374529 20.2259313,32.4466135 19.3905303,31.9645774 C18.5551292,31.4825413 17.5258726,31.4825413 16.6904715,31.9645774 C15.8550704,32.4466135 15.3404422,33.3374529 15.3404422,34.3015251 L15.3404422,34.3015251 Z" id="路径"></path>
                    <path d="M29.1152416,34.3015251 C29.1152416,35.7918516 30.3240991,36.9999999 31.8153003,36.9999999 C33.3065016,36.9999999 34.515359,35.7918516 34.515359,34.3015251 C34.515359,32.8111987 33.3065016,31.6030504 31.8153003,31.6030504 C30.3240991,31.6030504 29.1152416,32.8111987 29.1152416,34.3015251 L29.1152416,34.3015251 Z" id="路径"></path>
                </g>
            </g>
        </g>
    </g>
</svg>