<?xml version="1.0" encoding="UTF-8"?>
<svg width="52px" height="37px" viewBox="0 0 52 37" version="1.1" xmlns="http://www.w3.org/2000/svg" xmlns:xlink="http://www.w3.org/1999/xlink">
    <title>ic-统计监测-跨境物流企业</title>
    <g id="页面-1" stroke="none" stroke-width="1" fill="none" fill-rule="evenodd">
        <g id="嘉兴跨电商综合试验区-统计监测" transform="translate(-457.000000, -1897.000000)" fill-rule="nonzero">
            <g id="ic-统计监测-跨境物流企业" transform="translate(457.000000, 1897.000000)">
                <path d="M0,13.4923739 C0,20.9440062 6.04428727,26.9847477 13.5002935,26.9847477 C20.9562997,26.9847477 27.000587,20.9440062 27.000587,13.4923739 C27.000587,6.04074153 20.9562997,-2.27373675e-13 13.5002935,-2.27373675e-13 C6.04428727,-2.27373675e-13 0,6.04074153 0,13.4923739 Z" id="路径备份" fill="#D0F1FF"></path>
                <path d="M33.4900972,8 C35.0037627,8 36.2344428,9.14375007 36.2344428,10.5500209 L36.2344428,13.4546159 C36.4235373,13.4167297 36.6164417,13.397694 36.8098822,13.3978318 L43.8631797,13.3978318 C44.3203639,13.3978318 44.9671697,13.5548141 46.2927848,14.7175434 C46.8654124,15.2196101 47.52086,15.8706294 48.1894149,16.601523 L48.1965268,16.6095527 L48.6990697,17.1591444 L48.6874922,17.1591444 C48.709324,17.1835024 48.7297498,17.2078988 48.7515402,17.2322568 C49.1816581,17.7260556 49.6004234,18.237091 49.9804844,18.7287162 L50.2578458,19.0932231 L50.2578458,19.0932231 C50.5956998,19.5453059 50.8899731,19.9703799 51.1318172,20.3546906 C51.900889,21.5742809 52,22.1413535 52,22.5001153 L52,30.5954222 C52,32.0016163 50.7690717,33.1453663 49.2556957,33.1453663 L47.7378127,33.1453663 C47.2308042,35.3624819 45.0823238,37 42.6162911,37 C40.149969,37 38.002853,35.3625203 37.4960926,33.1453663 L36.8083936,33.1453663 C36.2024809,33.1453663 35.6241059,32.9626045 35.1493488,32.6255498 C34.6730205,32.9626045 34.0946868,33.1453663 33.488774,33.1453663 L26.1632417,33.1453663 C25.6561505,35.3624819 23.5090759,37 21.041472,37 C18.5753566,37 16.428282,35.3625203 15.9211908,33.1453663 L12.7443043,33.1453663 C11.2309283,33.1453663 10,32.0016163 10,30.5954222 L10,10.5500209 C10,9.14375007 11.2309283,8 12.7443043,8 L33.4900972,8 Z M21.0429605,29.0233856 C19.3533182,29.0233856 17.9796568,30.3450844 17.9796568,31.9692379 C17.9796568,33.59359 19.3533182,34.9152094 21.0429605,34.9152094 C22.7326855,34.9152094 24.1079181,33.5935503 24.1079181,31.9692379 C24.1079181,30.3450844 22.7327269,29.0233856 21.0429605,29.0233856 Z M42.6175315,29.0234253 C40.9278892,29.0234253 39.552698,30.3451242 39.552698,31.9692776 C39.552698,33.5936298 40.9278892,34.9152491 42.6175315,34.9152491 C44.3058921,34.9152491 45.6824478,33.59359 45.6824478,31.9692776 C45.6824478,30.3451242 44.3072979,29.0234253 42.6175315,29.0234253 Z M33.488774,9.92892913 L12.7443043,9.92892913 C12.4266694,9.92892913 12.168865,10.16716 12.168865,10.4606787 L12.168865,30.3971796 C12.168865,30.6906983 12.4266694,30.9289291 12.7443043,30.9289291 L15.9241265,30.9289291 C16.4180277,28.7551253 18.4573496,27.1626277 20.8884846,27.0966796 L21.1886707,27.0966796 L21.1886707,27.0952659 L21.204631,27.0952659 C23.6329957,27.1653023 25.6693818,28.7565008 26.163283,30.9275536 L33.4887327,30.9275536 C33.8061195,30.9275536 34.0640066,30.6893228 34.0640066,30.3959951 L34.0640066,10.4606787 C34.0640066,10.16716 33.8062022,9.92892913 33.488774,9.92892913 Z M43.76411,14.9273394 L36.8128592,14.9273394 C36.4952243,14.9273394 36.2373785,15.1712819 36.2373785,15.4717023 L36.2373785,30.3763664 C36.2373785,30.676826 36.4952657,30.9206903 36.8128592,30.9206903 L37.5003101,30.9206903 C37.9737441,28.8137185 39.8891875,27.1975652 42.1761836,27.0141683 C42.1937151,27.0129167 42.2096754,27.0129167 42.2257184,27.0114305 L42.2317139,27.0114305 L42.2317139,27.0196049 L42.2330784,27.0196049 L42.2330784,27.0114305 L42.2388671,27.0114305 L42.2388671,27.0183924 L42.2446558,27.0114305 L42.2446558,27.0169062 L42.2461857,27.0169062 L42.2461857,27.0114305 L42.2535456,27.0156546 L42.2548274,27.0156546 L42.2548274,27.0114305 L42.2609055,27.0114305 L42.2609055,27.0141683 L42.2971677,27.0086926 L42.4602853,27.0086926 L42.4676452,27.0072846 L42.4676452,27.0102571 L42.4733926,27.0072846 L42.4733926,27.0114696 L42.4750052,27.0114696 L42.4807525,27.0072846 L42.4880711,27.0129167 L42.4938598,27.0072846 L42.4938598,27.0129167 L42.4953897,27.0129167 L42.5011784,27.0087317 L42.5011784,27.0114696 L42.5025016,27.0114696 L42.5025016,27.0087317 L42.5098615,27.0114696 L42.5098615,27.0102571 L42.7196609,27.0102571 C42.7241265,27.0086926 42.7283854,27.0102571 42.7312384,27.0102571 L42.7837503,27.0102571 L42.7859934,27.011318 L42.7898284,27.0114696 L42.7918958,27.0127359 L42.8623114,27.0129167 L42.8771553,27.0140461 L42.8771553,27.0140461 L42.9397147,27.0142074 C42.9512508,27.0156546 42.9643167,27.0169453 42.9758941,27.019644 C42.9789952,27.0211694 42.9818896,27.0211694 42.9832127,27.0211694 L42.9868772,27.021893 C42.993467,27.0226166 42.9949969,27.0238681 42.9979326,27.0238681 L43.0050444,27.0253153 C43.0081455,27.0253153 43.0094687,27.0265669 43.012363,27.0265669 L43.012363,27.0169062 C45.3212735,27.1808643 47.2601199,28.805505 47.7378127,30.9273394 L49.2541245,30.9273394 C49.5717594,30.9273394 49.8295638,30.6835142 49.8295638,30.3832502 L49.8353525,30.3832502 L49.8353525,24.3465239 L41.7931776,24.3465239 C40.2797188,24.3465239 39.0488319,23.1823897 39.0488319,21.7506111 L39.0488319,18.6104918 C39.0488319,17.1789087 40.2797602,16.014579 41.7931776,16.014579 L45.1376886,16.014579 C45.0807939,15.9622078 45.0270002,15.9110883 44.9716767,15.8602033 C44.2330784,15.1794172 43.8763283,14.9796714 43.76411,14.9273394 Z M47.0604507,17.8570872 L41.7873475,17.8570872 C41.4697126,17.8570872 41.2118669,18.1049728 41.2118669,18.4100108 L41.2118669,21.6010858 C41.2118669,21.9063623 41.4696713,22.1542081 41.7873889,22.1542081 L49.831135,22.1542081 L49.831135,22.0127182 C49.8238164,21.9651044 49.7495555,21.6009666 49.1260285,20.6195193 L48.980277,20.3940892 L49.2802977,20.2105895 L48.9744883,20.3842724 L49.1113914,20.2960399 L48.964234,20.3717131 C48.6468472,19.8914025 48.2521398,19.348097 47.8237751,18.7979555 C47.8209221,18.7936632 47.8179864,18.7894105 47.8148853,18.7866284 C47.5694562,18.4722887 47.3179341,18.1623875 47.0604507,17.8570872 Z" id="形状结合" fill="#3F8EF6"></path>
            </g>
        </g>
    </g>
</svg>