<?xml version="1.0" encoding="UTF-8"?>
<svg width="58px" height="58px" viewBox="0 0 58 58" version="1.1" xmlns="http://www.w3.org/2000/svg" xmlns:xlink="http://www.w3.org/1999/xlink">
    <title>ic-电商信用-信用查询</title>
    <g id="页面-1" stroke="none" stroke-width="1" fill="none" fill-rule="evenodd">
        <g id="嘉兴跨电商综合试验区-电商信用" transform="translate(-691.000000, -678.000000)" fill-rule="nonzero">
            <g id="ic-电商信用-信用查询" transform="translate(691.000000, 678.000000)">
                <path d="M0,27.0666667 C0,42.0151739 12.1181594,54.1333333 27.0666667,54.1333333 C42.0151739,54.1333333 54.1333333,42.0151739 54.1333333,27.0666667 C54.1333333,12.1181594 42.0151739,0 27.0666667,0 C12.1181594,0 0,12.1181594 0,27.0666667 Z" id="路径" fill="#3F8EF6"></path>
                <polygon id="路径" fill="#FFFFFF" opacity="0.2" points="58 33.7125 38.1833333 58 27.0666667 25.8583333"></polygon>
                <path d="M29.1721271,14.7416667 L29.1721271,19.1899646 C29.1721271,20.1809792 29.9675125,20.9862125 30.9546604,21.0022229 L30.9846271,21.0024646 L35.525,21.0024646 L35.525,28.6710312 C33.4813458,28.3522729 31.31855,28.9801229 29.7439708,30.5547625 C27.1250292,33.1737042 27.1250292,37.4198479 29.7439708,40.0387896 C30.1004292,40.3953083 30.4870958,40.7033125 30.8956937,40.9627417 L16.1916667,40.9627417 C15.1906229,40.9627417 14.3791667,40.1510437 14.3791667,39.15 L14.3791667,16.5541667 C14.3791667,15.5531229 15.1906229,14.7416667 16.1916667,14.7416667 L29.1721271,14.7416667 L29.1721271,14.7416667 Z M20.8566792,19.9528458 L19.3885542,19.9528458 C19.0499792,21.4103979 18.4575333,22.6322042 17.6111562,23.618325 L17.5730937,23.6623083 L17.5730937,25.9708292 C17.9247187,25.6755729 18.2398521,25.3702875 18.5186146,25.0550937 L18.5705125,24.9958854 L18.5705125,30.0949917 L20.0274,30.0949917 L20.0274,22.7321333 C20.4158792,21.8803792 20.6923458,20.95395 20.8566792,19.9528458 L20.8566792,19.9528458 Z M27.569575,26.5536687 L21.0135812,26.5536687 L21.0135812,29.9717417 L27.569575,29.9717417 L27.569575,26.5536687 L27.569575,26.5536687 Z M26.123925,27.7191062 L26.123925,28.8061833 L22.4592917,28.8061833 L22.4592917,27.7191667 L26.123925,27.7191667 L26.123925,27.7191062 Z M27.3790813,24.6709042 L21.2041354,24.6709042 L21.2041354,25.8588167 L27.3790813,25.8588167 L27.3790813,24.6709042 L27.3790813,24.6709042 Z M27.3790813,22.7881396 L21.2041354,22.7881396 L21.2041354,23.9760521 L27.3790813,23.9760521 L27.3790813,22.7881396 L27.3790813,22.7881396 Z M25.0256104,19.8967792 L23.5687229,19.8967792 L23.5687229,20.7709479 L20.7558438,20.7709479 L20.7558438,22.0933479 L27.8273125,22.0933479 L27.8273125,20.7709479 L25.0256104,20.7709479 L25.0256104,19.8967792 Z M30.5730083,14.7669812 L35.534425,19.6241187 L31.177175,19.6241187 C30.8434937,19.6241187 30.5730083,19.3536333 30.5730083,19.0199521 L30.5730083,14.7670417 L30.5730083,14.7669812 Z" id="形状" fill="#FFFFFF"></path>
                <path d="M30.9025208,31.7473875 C31.8876146,30.7623542 33.1786583,30.2698375 34.4697625,30.2698375 C35.7608667,30.2698375 37.0519104,30.7623542 38.0369437,31.7473875 C38.8666458,32.5770896 39.3468979,33.6238687 39.4777604,34.7049042 C39.6114625,35.8089583 39.3806104,36.9487792 38.7853854,37.9294625 L38.7659312,37.9613021 C38.9389505,38.0191025 39.0961071,38.116454 39.2249167,38.2456229 L39.8230417,38.8437479 C40.0443094,39.0644545 40.1684849,39.3642499 40.1680822,39.6767729 C40.1680822,39.9782521 40.0531083,40.2797917 39.8230417,40.5098583 C39.6023203,40.731141 39.3025002,40.8553177 38.9899562,40.854899 C38.6884771,40.854899 38.3869979,40.7398646 38.1569312,40.5098583 L37.5588062,39.9117333 C37.4411097,39.7943781 37.3496584,39.6533812 37.2904958,39.4980604 C37.280225,39.5050083 37.2699542,39.5119562 37.2596229,39.5187833 C36.2710854,40.1763583 35.1017812,40.4481125 33.9637729,40.3341062 C32.846125,40.2220937 31.7587458,39.7380354 30.9025208,38.8818104 C29.9174875,37.8967771 29.4249708,36.6056729 29.4249708,35.3146292 C29.4249708,34.023525 29.9174875,32.7324208 30.9025208,31.7473875 L30.9025208,31.7473875 Z" id="路径" fill="#A8CAFB"></path>
            </g>
        </g>
    </g>
</svg>