<?xml version="1.0" encoding="UTF-8"?>
<svg width="58px" height="58px" viewBox="0 0 58 58" version="1.1" xmlns="http://www.w3.org/2000/svg" xmlns:xlink="http://www.w3.org/1999/xlink">
    <title>ic-风险防控-防控数据</title>
    <g id="页面-1" stroke="none" stroke-width="1" fill="none" fill-rule="evenodd">
        <g id="嘉兴跨电商综合试验区-风险防控" transform="translate(-691.000000, -678.000000)" fill-rule="nonzero">
            <g id="ic-风险防控-防控数据" transform="translate(691.000000, 678.000000)">
                <path d="M0,27.0666667 C0,42.0151739 12.1181594,54.1333333 27.0666667,54.1333333 C42.0151739,54.1333333 54.1333333,42.0151739 54.1333333,27.0666667 C54.1333333,12.1181594 42.0151739,0 27.0666667,0 C12.1181594,0 0,12.1181594 0,27.0666667 Z" id="路径" fill="#3F8EF6"></path>
                <polygon id="路径" fill="#FFFFFF" opacity="0.2" points="58 33.7125 38.1833333 58 27.0666667 25.8583333"></polygon>
                <path d="M14,18.4690625 C18.0776538,18.169375 21.8399802,16.7759375 24.9755208,14.5903125 C25.6713046,14.1121875 26.346131,13.581875 27,13 C27.9727431,13.8759375 28.9961062,14.6346875 30.0704117,15.275625 C32.9828373,17.06625 36.3663194,18.2021875 40,18.4690625 L40,24.4228125 C40,32.1515625 34.6829613,38.9315625 27,41 C19.3170387,38.9315625 14,32.1515625 14,24.4228125 L14,18.4690625 Z" id="路径" fill="#FFFFFF"></path>
                <polygon id="路径" fill="#3F8EF6" points="25.3975026 20 31.1404787 20 28.9864724 24.0161751 32 24.0161751 24.7315297 34 25.7117586 27.1951987 22 27.1951987"></polygon>
                <g id="编组-10" transform="translate(37.000000, 34.000000)" fill="#A8CAFB">
                    <path d="M5,10 C4.10526314,10 3.42105263,9.31578949 3.42105263,8.42105263 L3.42105263,1.57894737 C3.42105263,0.684210506 4.10526314,0 5,0 C5.89473686,0 6.57894737,0.684210506 6.57894737,1.57894737 L6.57894737,8.42105263 C6.57894737,9.26315789 5.89473686,10 5,10 Z" id="路径"></path>
                    <path d="M8.42105263,6.57894737 L1.57894737,6.57894737 C0.684210506,6.57894737 0,5.89473686 0,5 C0,4.10526314 0.684210506,3.42105263 1.57894737,3.42105263 L8.42105263,3.42105263 C9.31578949,3.42105263 10,4.10526314 10,5 C10,5.84210526 9.31578949,6.57894737 8.42105263,6.57894737 Z" id="路径"></path>
                </g>
            </g>
        </g>
    </g>
</svg>