<?xml version="1.0" encoding="UTF-8"?>
<svg width="76px" height="71px" viewBox="0 0 76 71" version="1.1" xmlns="http://www.w3.org/2000/svg" xmlns:xlink="http://www.w3.org/1999/xlink">
    <title>ic-首页-关务数据</title>
    <g id="页面-1" stroke="none" stroke-width="1" fill="none" fill-rule="evenodd">
        <g id="嘉兴跨电商综合试验区首页" transform="translate(-529.000000, -1200.000000)" fill-rule="nonzero">
            <g id="ic-首页-关务数据" transform="translate(532.000000, 1203.000000)">
                <path d="M65.6179775,47 L4.38202247,47 C2.02247191,47 0,45.0233645 0,42.7172897 L0,4.28271028 C0,1.97663551 2.02247191,0 4.38202247,0 L65.6179775,0 C67.9775281,0 70,1.97663551 70,4.28271028 L70,42.7172897 C70,45.1331776 68.0898876,47 65.6179775,47 Z" id="路径" stroke="#3F8EF6" stroke-width="5"></path>
                <g id="编组-18" transform="translate(40.000000, 10.582306)" fill="#3F8EF6">
                    <path d="M11.7239165,0 C17.4574639,0 22.0930979,5.0681926 22.3370787,11.3691888 L11.7239165,11.3691888 L11.7239165,0 Z" id="路径"></path>
                    <path d="M20,13.4748374 C20,18.9605516 15.5172414,23.4176945 10,23.4176945 C4.48275862,23.4176945 0,18.9605516 0,13.4748374 C0,7.98912307 4.48275862,3.4176945 10,3.4176945 L10,12.9034088 L20,12.9034088 L20,13.4748374 Z" id="路径"></path>
                </g>
                <path d="M23.7656501,37.6572581 C22.7897271,37.6572581 22.0577849,36.835389 22.0577849,35.7395636 L22.0577849,17.1105313 C22.0577849,16.0147059 22.7897271,15.1928368 23.7656501,15.1928368 C24.741573,15.1928368 25.4735152,16.0147059 25.4735152,17.1105313 L25.4735152,35.7395636 C25.4735152,36.835389 24.741573,37.6572581 23.7656501,37.6572581 Z" id="路径" fill="#3F8EF6"></path>
                <path d="M30.7656501,37.6572581 C29.7897271,37.6572581 29.0577849,36.6916443 29.0577849,35.4041593 L29.0577849,13.5169142 C29.0577849,12.2294292 29.7897271,11.2638154 30.7656501,11.2638154 C31.741573,11.2638154 32.4735152,12.2294292 32.4735152,13.5169142 L32.4735152,35.4041593 C32.4735152,36.6916443 31.741573,37.6572581 30.7656501,37.6572581 Z" id="路径备份" fill="#3F8EF6"></path>
                <path d="M16.5682183,37.6572581 C15.5922953,37.6572581 14.8603531,36.835389 14.8603531,35.7395636 L14.8603531,21.0828985 C14.8603531,19.9870731 15.5922953,19.165204 16.5682183,19.165204 C17.5441413,19.165204 18.2760835,19.9870731 18.2760835,21.0828985 L18.2760835,35.7395636 C18.3980738,36.835389 17.5441413,37.6572581 16.5682183,37.6572581 L16.5682183,37.6572581 Z" id="路径" fill="#3F8EF6"></path>
                <path d="M9.49277689,37.6572581 C8.51685393,37.6572581 7.78491172,36.835389 7.78491172,35.7395636 L7.78491172,25.0552657 C7.78491172,23.9594402 8.51685393,23.1375712 9.49277689,23.1375712 C10.4686998,23.1375712 11.2006421,23.9594402 11.2006421,25.0552657 L11.2006421,35.7395636 C11.2006421,36.835389 10.4686998,37.6572581 9.49277689,37.6572581 Z" id="路径" fill="#3F8EF6"></path>
                <path d="M14.4111675,63 L55.5888325,63 C57.4162437,63 59,64.1206897 59,65.5 C59,66.8793103 57.4162437,68 55.5888325,68 L14.4111675,68 C12.5837563,68 11,66.8793103 11,65.5 C11,64.2068966 12.5837563,63 14.4111675,63 Z" id="路径" fill="#3F8EF6"></path>
            </g>
        </g>
    </g>
</svg>