<?xml version="1.0" encoding="UTF-8"?>
<svg width="76px" height="70px" viewBox="0 0 76 70" version="1.1" xmlns="http://www.w3.org/2000/svg" xmlns:xlink="http://www.w3.org/1999/xlink">
    <title>ic-首页-企业数据</title>
    <g id="页面-1" stroke="none" stroke-width="1" fill="none" fill-rule="evenodd">
        <g id="嘉兴跨电商综合试验区首页" transform="translate(-209.000000, -1201.000000)" fill="#3F8EF6" fill-rule="nonzero">
            <g id="ic-首页-企业数据" transform="translate(209.000000, 1201.000000)">
                <path d="M36.3887735,0.571473121 L0.962042064,29.4610354 L0.655208833,29.7468749 C-1.36171939,31.9067344 1.69493992,35.3466937 4.18379099,33.3169859 L8.89885056,29.4700966 L8.89885056,67.4999338 C8.89885056,68.8813542 10.0311319,70 11.4293909,70 L64.5707387,70 L65.0259858,69.9604602 C66.2066268,69.7487578 67.1012791,68.7281377 67.1012791,67.4999338 L67.1012791,29.4750391 L71.8163387,33.3169859 C74.4185846,35.4389531 77.6403335,31.5830026 75.0380876,29.4610354 L39.6105224,0.571473121 C38.6750146,-0.19049104 37.3242813,-0.19049104 36.3887735,0.571473121 Z M37.9996479,5.7396495 L62.0393646,25.3447814 L62.0393646,64.9998676 L13.9599313,64.9998676 L13.9599313,25.339839 L37.9996479,5.7396495 Z" id="形状"></path>
                <path d="M53.1828902,40.0000294 C54.4243974,40.0000294 55.458292,40.8839078 55.6734088,42.0503308 L55.7134305,42.5000956 L55.7134305,57.5004928 C55.7134305,58.8819132 54.5811492,60.000559 53.1828902,60.000559 C51.9413829,60.000559 50.9074883,59.1166805 50.6923715,57.9502576 L50.6523498,57.5004928 L50.6523498,42.5000956 C50.6523498,41.1194989 51.7854649,40.0000294 53.1828902,40.0000294 Z M22.8172395,50.0002942 C24.0587468,50.0002942 25.0926414,50.8841726 25.3077581,52.0505956 L25.3477799,52.5003604 L25.3477799,57.5004928 C25.3477799,58.8819132 24.2154985,60.000559 22.8172395,60.000559 C21.5757322,60.000559 20.5418376,59.1166805 20.3267208,57.9502576 L20.2866991,57.5004928 L20.2866991,52.5003604 C20.2866991,51.1197637 21.4198142,50.0002942 22.8172395,50.0002942 Z M46.5684662,20.5258729 C47.671565,19.6782393 49.2615948,19.8751144 50.1195606,20.9649291 C50.8824747,21.9336532 50.8099353,23.2829476 50.0095008,24.1651785 L49.6751526,24.4724354 L38.8300987,32.806264 C37.972133,33.4660838 36.7998299,33.5006811 35.9110141,32.9388869 L35.549151,32.6612849 L31.6678774,29.0854077 L24.330561,34.5040025 C23.3358544,35.2387831 21.9717805,35.1407574 21.0938039,34.3326636 L20.7894721,33.9965756 C20.045735,33.0138477 20.1449555,31.6662009 20.9628995,30.7987973 L21.3030842,30.4981304 L30.3413239,23.830738 C31.1992897,23.1981019 32.3515819,23.175037 33.2262233,23.7318886 L33.5822499,24.005372 L37.4243356,27.5499469 L46.5684662,20.5258729 L46.5684662,20.5258729 Z M37.9996479,45.0001618 C39.2411552,45.0001618 40.2750498,45.8840402 40.4901666,47.0504632 L40.5301883,47.500228 L40.5301883,57.5004928 C40.5301883,58.8819132 39.397907,60.000559 37.9996479,60.000559 C36.7581406,60.000559 35.7242461,59.1166805 35.5091293,57.9502576 L35.4691076,57.5004928 L35.4691076,47.500228 C35.4691076,46.1196313 36.6022227,45.0001618 37.9996479,45.0001618 Z" id="形状"></path>
            </g>
        </g>
    </g>
</svg>