<?xml version="1.0" encoding="UTF-8"?>
<svg width="83px" height="65px" viewBox="0 0 83 65" version="1.1" xmlns="http://www.w3.org/2000/svg" xmlns:xlink="http://www.w3.org/1999/xlink">
    <title>ic-首页-政务数据</title>
    <g id="页面-1" stroke="none" stroke-width="1" fill="none" fill-rule="evenodd">
        <g id="嘉兴跨电商综合试验区首页" transform="translate(-824.000000, -1200.000000)">
            <g id="ic-首页-政务数据" transform="translate(827.000000, 1203.000000)">
                <path d="M60,22 C71.045695,22 80,30.954305 80,42 C80,53.045695 71.045695,62 60,62 C48.954305,62 40,53.045695 40,42 C40,30.954305 48.954305,22 60,22 Z" id="路径" fill="#3F8EF6" fill-rule="nonzero"></path>
                <path d="M40.4413734,13.9063545 C40.4413734,15.3286263 39.2883943,16.4816054 37.8661226,16.4816054 L11.9619608,16.4816054 C10.539689,16.4816054 9.38670994,15.3286263 9.38670994,13.9063545 C9.38670994,12.4840828 10.539689,11.3311037 11.9619608,11.3311037 L37.8661226,11.3311037 C39.2883943,11.3311037 40.4413734,12.4840828 40.4413734,13.9063545 Z" id="路径" fill="#3F8EF6" fill-rule="nonzero"></path>
                <path d="M33.1952853,27.2374582 C33.1952853,28.65973 32.0423062,29.812709 30.6200344,29.812709 L11.9619608,29.812709 C10.539689,29.812709 9.38670994,28.65973 9.38670994,27.2374582 C9.38670994,25.8151864 10.539689,24.6622074 11.9619608,24.6622074 L30.6200344,24.6622074 C32.0423062,24.6622074 33.1952853,25.8151864 33.1952853,27.2374582 Z" id="路径备份-8" fill="#3F8EF6" fill-rule="nonzero"></path>
                <path d="M30.0898189,41.6287625 C30.0898189,43.0510343 28.9368398,44.2040134 27.5145681,44.2040134 L11.9619608,44.2040134 C10.539689,44.2040134 9.38670994,43.0510343 9.38670994,41.6287625 C9.38670994,40.2064908 10.539689,39.0535117 11.9619608,39.0535117 L27.5145681,39.0535117 C28.9368398,39.0535117 30.0898189,40.2064908 30.0898189,41.6287625 Z" id="路径备份-9" fill="#3F8EF6" fill-rule="nonzero"></path>
                <g id="编组-20" transform="translate(48.000000, 34.000000)" fill="#FFFFFF" fill-rule="nonzero">
                    <path d="M1.54525105,16 C1.16145704,16 0.700904217,15.8474273 0.393868985,15.4659956 C-0.14344266,14.8557048 -0.14344266,13.8639823 0.470627759,13.3299779 L5.9205029,8.37136529 C6.53457331,7.83736085 7.45567897,7.83736085 7.99299061,8.37136529 L11.370378,11.4991055 L18.048394,4.93847968 C18.6624644,4.32818892 19.6603289,4.32818892 20.1976405,4.93847968 C20.8117109,5.54877044 20.8117109,6.54049297 20.1976405,7.07449741 L12.5217601,14.7031321 C11.9076896,15.3134229 10.986584,15.3134229 10.3725135,14.7031321 L6.99512614,11.4991055 L2.6198743,15.4659956 C2.31283906,15.8474273 1.92904506,16 1.54525105,16 Z" id="路径"></path>
                    <path d="M16.580955,2.48578608 C16.0807188,2.68464895 15.9806715,3.1818062 16.3808605,3.48010052 L22.0835533,8.35224117 C22.4837423,8.74996696 22.8839313,8.55110403 22.9839785,8.05394684 L23.9844509,1.78976596 C24.0844982,1.29260877 23.6843092,0.596588655 23.2841202,0.397725789 L22.3836951,0 L16.580955,2.48578608 L16.580955,2.48578608 Z" id="路径"></path>
                </g>
                <path d="M72,14.75 L72,6.32598039 C72,2.83223789 69.1677621,6.45252172e-15 65.6740196,0 L6.32598039,0 C2.83223789,6.41790085e-16 4.60318363e-16,2.83223789 0,6.32598039 L0,52.6740196 C-4.60318363e-16,56.1677621 2.83223789,59 6.32598039,59 L35.7024793,59 L35.7024793,59" id="路径-11" stroke="#3F8EF6" stroke-width="5"></path>
            </g>
        </g>
    </g>
</svg>