<?xml version="1.0" encoding="UTF-8"?>
<svg width="76px" height="70px" viewBox="0 0 76 70" version="1.1" xmlns="http://www.w3.org/2000/svg" xmlns:xlink="http://www.w3.org/1999/xlink">
    <title>ic-首页-第三方数据</title>
    <g id="页面-1" stroke="none" stroke-width="1" fill="none" fill-rule="evenodd">
        <g id="嘉兴跨电商综合试验区首页" transform="translate(-1155.000000, -1201.000000)" fill="#3F8EF6" fill-rule="nonzero">
            <g id="ic-首页-第三方数据" transform="translate(1155.000000, 1201.000000)">
                <path d="M45.192172,5.2120086e-05 C46.8613808,-0.00222409205 48.4617896,0.615467418 49.6346533,1.71471878 C50.807517,2.81397015 51.4547323,4.30283545 51.4312204,5.84757283 C51.436083,7.37296836 50.7784036,8.83618117 49.6060135,9.90831435 C48.4458338,11.0433123 46.8320769,11.6863556 45.1439093,11.6863556 C43.4557416,11.6863556 41.8419847,11.0433123 40.681805,9.90831435 C39.5158549,8.83349045 38.8646487,7.37061321 38.8741483,5.84757283 C38.8553258,4.29850024 39.508883,2.80721676 40.688332,1.70797761 C41.8677809,0.608738458 43.4744771,-0.00652026949 45.1482968,5.2120086e-05 L45.192172,5.2120086e-05 Z M46.789228,4.36134147 C46.3777023,3.9553675 45.8024094,3.72591561 45.200947,3.72786573 C44.5916604,3.70045808 44.0026446,3.93409245 43.603891,4.36134147 C43.1546063,4.73864952 42.9047967,5.27812588 42.9194384,5.83945133 C42.9094525,6.38179562 43.1227838,6.90734173 43.5161406,7.30943977 C43.9750637,7.70030091 44.5690167,7.9276705 45.192172,7.95103693 C45.7903705,7.92111033 46.3570879,7.69343872 46.789228,7.30943977 C47.1825849,6.90734173 47.3959162,6.38179562 47.3859302,5.83945133 C47.3898498,5.29269492 47.170454,4.76475035 46.7716779,4.36134147 L46.789228,4.36134147 Z M69.6920639,40.2745393 C71.3822413,40.290383 72.9971517,40.9238512 74.1848808,42.0369011 C76.6050397,44.2997423 76.6050397,47.9442719 74.1848808,50.2071131 C72.9960776,51.3344125 71.3677324,51.9723562 69.6657388,51.9775964 C68.0087923,51.9586271 66.428906,51.3269485 65.2782224,50.223356 C64.0688189,49.1593267 63.3841276,47.6826127 63.3841276,46.1382501 C63.3841276,44.5938874 64.0688189,43.1171734 65.2782224,42.0531441 C66.430266,40.9503308 68.0085569,40.3163686 69.6657388,40.2907823 L69.6920639,40.2745393 Z M71.2891199,44.6682616 C70.869943,44.2595325 70.2877837,44.0280815 69.6789014,44.0280815 C69.070019,44.0280815 68.4878598,44.2595325 68.0686828,44.6682616 C67.6488389,45.0695769 67.4103083,45.6040611 67.4017804,46.1626145 C67.4253625,46.7086443 67.6733255,47.2257345 68.095008,47.6082385 C68.5108459,48.0134796 69.0882137,48.2429352 69.6920639,48.2429352 C70.2959142,48.2429352 70.873282,48.0134796 71.2891199,47.6082385 C71.7269715,47.2233715 71.9748918,46.6890051 71.9748918,46.1301286 C71.9748918,45.5712521 71.7269715,45.0368857 71.2891199,44.6520187 L71.2891199,44.6682616 Z M12.171723,12.320388 C13.8211454,12.3180366 15.4022881,12.9297302 16.5592395,14.0177847 C17.7591227,15.112724 18.4327052,16.6083352 18.4283482,18.1678626 C18.4331841,19.6932581 17.7755047,21.1564709 16.6031146,22.2286041 C15.4544681,23.3359472 13.8740349,23.97077 12.2155982,23.990967 C10.5166312,23.9919455 8.88722646,23.3665142 7.68768116,22.2529685 C6.51529103,21.1808353 5.85761162,19.7176225 5.86247431,18.192227 C5.83883546,16.6418322 6.49083713,15.1479574 7.67133569,14.04774 C8.85183424,12.9475227 10.4613411,12.3336855 12.1366229,12.3447592 L12.171723,12.320388 Z M13.768779,16.6897526 C13.3545489,16.2825275 12.7760162,16.0530512 12.171723,16.056277 C11.5652267,16.0427257 10.9823377,16.2739299 10.574667,16.6897526 C10.1368154,17.0746196 9.88889505,17.608986 9.88889505,18.1678626 C9.88889505,18.7267391 10.1368154,19.2611055 10.574667,19.6459725 C11.0030861,20.0340024 11.5726629,20.2599262 12.171723,20.2794482 C12.768064,20.248933 13.333634,20.0245985 13.768779,19.6459725 C14.2113464,19.263526 14.4626003,18.7282573 14.4626003,18.1678626 C14.4626003,17.6074679 14.2113464,17.0721991 13.768779,16.6897526 L13.768779,16.6897526 Z M6.31877604,44.505832 C7.96830221,44.4948532 9.55187502,45.1045557 10.7062925,46.1951005 C11.9202333,47.2886124 12.6120464,48.7855415 12.6280247,50.3532998 C12.6121451,51.8893933 11.9252805,53.3541585 10.7238425,54.4140413 C9.57462467,55.5206237 7.99455269,56.1553013 6.33632606,56.1764031 C4.63985213,56.1657308 3.01743539,55.5317945 1.82595919,54.4140413 C0.653569062,53.3419081 -0.00411034025,51.8786953 0.000752343261,50.3532998 C-0.0252709302,48.8036616 0.624751741,47.3097407 1.80386741,46.2092731 C2.98298308,45.1088054 4.59162647,44.4947152 6.26612582,44.505832 L6.31877604,44.505832 Z M7.89828196,48.8670683 C7.4920127,48.4494302 6.90817614,48.2178502 6.30122594,48.2335927 C5.69404715,48.2167377 5.10972647,48.4485097 4.70416999,48.8670683 C4.25901356,49.249205 4.01557562,49.7917208 4.03726746,50.3532998 C4.03726078,50.909567 4.28483266,51.4412734 4.72172002,51.8232882 C5.14578374,52.2183739 5.71734239,52.4479904 6.31877604,52.4648858 C7.2405742,52.4654462 8.07069904,51.9486899 8.41769449,51.1582996 C8.76468994,50.3679093 8.55926164,49.4617245 7.89828196,48.8670683 L7.89828196,48.8670683 Z M38.7249727,58.3042316 C42.1748986,58.3701452 44.9409913,60.9662305 44.9640211,64.1598209 C44.9800073,65.7134672 44.3226041,67.2082427 43.1388143,68.3098987 C41.9804047,69.3949712 40.3994446,70.0036677 38.7512978,69.9991672 C37.0669721,70.0256464 35.4428453,69.4197382 34.249198,68.3195822 C33.0555508,67.2194262 32.3941273,65.7187976 32.415724,64.1598209 C32.3992434,62.6355281 33.0515224,61.1702408 34.2233808,60.0990793 C35.41375,58.9798159 37.0368765,58.3456023 38.7337477,58.3367175 L38.7249727,58.3042316 Z M40.3659038,62.6735895 C39.932033,62.2931662 39.3657163,62.0685355 38.7688478,62.0401135 C38.1651943,62.0397958 37.5878558,62.2687984 37.1717919,62.6735895 C36.7339403,63.0584565 36.48602,63.5928229 36.48602,64.1516994 C36.48602,64.7105759 36.7339403,65.2449423 37.1717919,65.6298093 C37.5681101,66.0601287 38.1588385,66.2944424 38.7688478,66.263285 C39.3727135,66.2645631 39.9504447,66.0354047 40.3659038,65.6298093 C40.8037554,65.2449423 41.0516758,64.7105759 41.0516758,64.1516994 C41.0516758,63.5928229 40.8037554,63.0584565 40.3659038,62.6735895 L40.3659038,62.6735895 Z" id="形状"></path>
                <path d="M44.130393,64.0055127 C43.687669,64.2692901 43.1494459,64.3584749 42.63534,64.2532463 C42.121234,64.1480177 41.6738381,63.8570938 41.3925827,63.4451303 C41.0846546,63.0416205 40.9748258,62.5366484 41.0900838,62.0542974 C41.2053418,61.5719463 41.5350023,61.1569301 41.99806,60.9112277 L63.7513667,47.9168549 C64.1887573,47.6315736 64.735655,47.5297826 65.2581988,47.6363965 C65.7807425,47.7430104 66.2307051,48.0481897 66.4979519,48.4772372 C66.7333041,48.7879271 66.8505853,49.1621262 66.8314032,49.5411515 C66.8361853,50.1668322 66.4821675,50.7479493 65.9012497,51.0679903 L44.130393,64.0623631 L44.130393,64.0055127 Z" id="路径"></path>
                <path d="M17.2700171,19.4348139 C16.2442596,19.8442671 15.0533093,19.4159569 14.5953919,18.4729187 C14.1374746,17.5298806 14.5821259,16.4212577 15.5939858,15.9831836 L39.3304499,6.34298331 C39.5874338,6.23725181 39.8652999,6.18194619 40.146528,6.18054347 C40.9506737,6.17809192 41.6775483,6.62338052 41.9892849,7.30943977 C42.3570037,8.25122488 41.9043341,9.29861386 40.936281,9.74588466 L17.2700171,19.4348139 Z" id="路径"></path>
                <path d="M9.43391271,46.6905109 C9.2242285,47.6648399 8.23318799,48.3210894 7.16912913,48.1902106 C6.10507026,48.0593318 5.33362288,47.1862969 5.40617258,46.1951005 L8.91618579,22.4641271 C8.99495269,21.4527656 9.94140318,20.6901193 11.0345913,20.7571239 C12.1277794,20.8241285 12.9572994,21.695629 12.8912757,22.7077716 L12.8912757,22.967659 L9.43391271,46.6905109 Z" id="路径"></path>
                <path d="M41.2434071,59.083894 C41.1992363,59.5819671 40.9394178,60.0423692 40.5229854,60.3604913 C40.106553,60.6786134 39.568868,60.8274424 39.0320989,60.7731624 C38.0375576,60.6777233 37.280728,59.9037126 37.2770922,58.9783147 C37.268417,58.8918716 37.268417,58.8048704 37.2770922,58.7184272 L42.1209105,10.558033 C42.1580589,10.077612 42.4060386,9.63219541 42.8071832,9.32536235 C43.2083278,9.01852929 43.7276803,8.87701809 44.2444684,8.93373639 C44.7721412,8.96459138 45.2638672,9.19175856 45.6076845,9.56351393 C45.9515018,9.9352693 46.1181466,10.419971 46.0696752,10.9072567 L41.2434071,59.083894 Z" id="路径"></path>
                <path d="M71.3680952,40.9161365 C71.5910193,41.2170678 71.7075294,41.5746182 71.7017659,41.9394434 C71.6999404,42.5470004 71.3707373,43.1137138 70.8240432,43.4500392 C69.8916529,44.0157552 68.6427037,43.7967748 67.9984826,42.9546287 L45.6309236,11.4107887 C45.2359114,10.8580479 45.1895185,10.1522532 45.5092208,9.55927049 C45.8289231,8.96628783 46.4661502,8.57620544 47.1808647,8.53596359 C47.8955792,8.49572174 48.579199,8.81143413 48.9742112,9.36417495 L71.3680952,40.9161365 Z M38.0229701,58.377325 C38.1946944,58.6541799 38.2854309,58.9677002 38.286221,59.2869311 C38.2832443,60.1236143 37.6769667,60.8554616 36.804709,61.075288 C35.9324512,61.2951144 35.008964,60.9487983 34.548057,60.2290231 L12.8561756,24.1533956 C12.4831967,23.5586153 12.491721,22.8226356 12.8783902,22.2353918 C13.2650594,21.6481481 13.9678926,21.3037725 14.7100123,21.3379299 C15.452132,21.3720873 16.1145802,21.7793025 16.436389,22.3991552 L38.0405201,58.377325 L38.0229701,58.377325 Z" id="形状"></path>
                <path d="M65.2782224,42.6784983 C66.2597418,43.1670169 66.647539,44.2868307 66.1557256,45.212401 C65.9027711,45.6524878 65.4702519,45.9807427 64.9544142,46.1241209 C64.4385766,46.2674991 63.8822174,46.2141051 63.4091403,45.9758204 L15.2166595,22.1798752 C14.589656,21.8636088 14.1925847,21.2617774 14.1750185,20.6010851 C14.1574522,19.9403928 14.5220598,19.3212145 15.131497,18.9767886 C15.7409342,18.6323626 16.5026131,18.6150156 17.1296166,18.931282 L65.2782224,42.6784983 Z M34.8464081,60.9112277 C35.31806,61.1205421 35.6777519,61.4980324 35.8431614,61.9573026 C36.0085709,62.4165729 35.9655379,62.9183067 35.7239114,63.3476726 C35.2279766,64.2325942 34.061829,64.5923592 33.0914015,64.1598209 L9.89021445,53.6018929 C9.42030877,53.3908521 9.06224863,53.0133024 8.89708019,52.5547015 C8.73191176,52.0961006 8.77360083,51.5952254 9.01271118,51.165448 C9.51184583,50.2840002 10.6744856,49.9253174 11.6452211,50.3532998 L34.8464081,60.9112277 Z" id="形状"></path>
                <path d="M11.8733719,48.1604993 C11.1528521,48.8525764 9.98001303,48.9194326 9.17317551,48.3144206 C8.36633799,47.7094086 8.19373023,46.6336609 8.77578523,45.8377552 L40.0236775,9.36417495 C40.4657261,8.83115654 41.1850699,8.56159703 41.9032721,8.65983497 C42.6214743,8.75807292 43.2258179,9.20869054 43.4823792,9.837267 C43.7389406,10.4658435 43.6074541,11.1737279 43.1388143,11.6869191 L11.8733719,48.1604993 Z" id="路径"></path>
                <path d="M64.5235696,46.1951005 C65.0634561,46.1628738 65.5930119,46.34276 65.9821852,46.6905814 C66.3713586,47.0384028 66.584096,47.5219367 66.5681522,48.0224341 C66.5681522,49.0271573 65.6881198,49.8416463 64.6025448,49.8416464 L10.5307918,50.8405887 C9.99360815,50.8604918 9.47088418,50.6767925 9.08335427,50.3319201 C8.69582436,49.9870476 8.47743352,49.5108283 8.47743352,49.0132551 C8.48014337,48.0007 9.33337751,47.1647704 10.4254915,47.1047065 L64.5235696,46.1951005 Z" id="路径"></path>
            </g>
        </g>
    </g>
</svg>