<?xml version="1.0" encoding="UTF-8"?>
<svg width="174px" height="108px" viewBox="0 0 174 108" version="1.1" xmlns="http://www.w3.org/2000/svg" xmlns:xlink="http://www.w3.org/1999/xlink">
    <title>ic-首页-企业查询</title>
    <defs>
        <linearGradient x1="-1.43114687e-14%" y1="56.1727996%" x2="98.0970724%" y2="56.3799921%" id="linearGradient-1">
            <stop stop-color="#4977F6" offset="0%"></stop>
            <stop stop-color="#90B9F7" offset="53.4728845%"></stop>
            <stop stop-color="#4977F6" offset="100%"></stop>
        </linearGradient>
    </defs>
    <g id="页面-1" stroke="none" stroke-width="1" fill="none" fill-rule="evenodd">
        <g id="嘉兴跨电商综合试验区首页" transform="translate(-324.000000, -1653.000000)">
            <g id="ic-首页-企业查询" transform="translate(326.000000, 1653.000000)">
                <g id="编组-16" transform="translate(0.000000, 17.000000)">
                    <g id="编组-14" transform="translate(0.000000, 6.054268)" stroke-width="1.40495868">
                        <polygon id="路径-7" stroke="#BDD4FB" points="0 42.9666161 90.9958506 74.1520633 170 36.0365168 77.593361 -2.58938883e-13"></polygon>
                        <polygon id="路径-7备份" stroke="#CEE0FC" points="-6.00127587e-14 50.3674392 90.9958506 83.9457321 170 42.6724138 77.593361 8.39457321"></polygon>
                    </g>
                    <g id="编组-15" transform="translate(13.909091, 0.000000)">
                        <path d="M0,35.6896552 L0.140495868,45.9284907 L74.2714814,73.2108536 C76.624846,73.2108536 77.8015283,73.2108536 77.8015283,73.2108536 C77.8015283,73.2108536 98.7464734,62.4844545 140.636364,41.0316563 L140.636364,29.4827586 L63.3636364,0 L0,35.6896552 Z" id="路径-8" fill="url(#linearGradient-1)"></path>
                        <polygon id="路径-10" fill="#DEEAFD" points="0.140495868 34.9773884 72.1534532 60.161108 78.5075377 60.161108 140.636364 29.3810062 63.6813406 -1.4318588e-13"></polygon>
                    </g>
                </g>
                <path d="M47,48 C47,51.8659932 64.0131795,55 85,55 C105.98682,55 123,51.8659932 123,48 C123,44.1340068 105.98682,41 85,41 C64.0131795,41 47,44.1340068 47,48 Z" id="路径备份-4" fill="#5392FF" fill-rule="nonzero" opacity="0.221888951"></path>
                <g id="编组-29" transform="translate(61.000000, 0.000000)" fill-rule="nonzero">
                    <g id="编组-24" transform="translate(25.000000, 21.000000)">
                        <path d="M21.5074748,19.1932333 L17.8955031,15.5609839 C20.6865634,11.7635993 20.3581892,6.31520099 16.9104286,2.84803846 C13.134342,-0.949346153 6.89552113,-0.949346153 2.95522334,2.84803846 C1.14923749,4.66418734 0,7.140732 0,9.78236352 C0,12.423995 0.985074447,14.9005397 2.95522334,16.7166886 C4.7612092,18.5328375 7.22389531,19.6885422 9.85074447,19.6885422 C11.9850564,19.6885422 13.9552053,19.0281464 15.5970281,17.8723933 L19.2089517,21.5046911 C19.5373259,21.8348648 20.0298631,22 20.3581892,22 C20.6865153,22 21.1791006,21.8348648 21.5074748,21.5046911 C22.1641751,21.0093821 22.1641751,19.853629 21.5074748,19.1932333 L21.5074748,19.1932333 Z" id="路径" fill="#F6C84E"></path>
                        <path d="M5.10000128,14.9932166 C3.69998334,13.5822348 3,11.8185462 3,10.054806 C3,8.29106572 3.69998334,6.35102379 5.10000128,5.11644696 C6.49996796,3.7054651 8.2500032,3 9.99998718,3 C11.7499712,3 13.5,3.7054651 14.8999731,5.11644696 C17.700009,7.93835901 17.700009,12.3476579 14.8999731,15.16957 C12.4500058,17.6387753 7.72500288,17.6387753 5.10000128,14.9932166 L5.10000128,14.9932166 Z" id="路径" fill="#FFFFFF"></path>
                    </g>
                    <g id="编组-23">
                        <path d="M27.6216695,41.6666992 L22.7472601,41.6666992 L22.7472601,11.6666992 L38.9952758,11.6666992 L38.9952758,18.3333496 C38.9952758,19.3333496 39.6452288,20 40.6201107,20 C41.5949926,20 42.244898,19.3333496 42.244898,18.3333496 L42.244898,11.6666992 C42.244898,9.83334961 40.7825751,8.33334961 38.8328113,8.33334961 L22.7472601,8.33334961 L22.7472601,3.33334961 C22.7472601,1.5 21.2849372,0 19.6601499,0 L4.71194502,0 C3.08715773,0 1.62483489,1.5 1.62483489,3.33334961 L1.62483489,41.6666992 C0.649952997,41.6666992 0,42.3333496 0,43.3333496 C0,44.3333496 0.649952997,45 1.62483489,45 L27.6216695,45 C28.5965514,45 29.2464568,44.3333496 29.2464568,43.3333496 C29.2464568,42.3333496 28.5965514,41.6666992 27.6216695,41.6666992 Z" id="路径" fill="#4883F0"></path>
                        <path d="M15.4897989,9.25531915 L7.27549466,9.25531915 C6.28978008,9.25531915 5.63265306,9.96857428 5.63265306,11.0384831 C5.63265306,12.1083919 6.28978008,12.821647 7.27549466,12.821647 L15.4897989,12.821647 C16.4755135,12.821647 17.1326405,12.1083919 17.1326405,11.0384831 C17.1326405,9.96857428 16.4755135,9.25531915 15.4897989,9.25531915 Z" id="路径" fill="#FFFFFF"></path>
                        <path d="M15.4897989,16.3880272 L7.27549466,16.3880272 C6.28978008,16.3880272 5.63265306,17.1012823 5.63265306,18.1711911 C5.63265306,19.2410999 6.28978008,19.9544073 7.27549466,19.9544073 L15.4897989,19.9544073 C16.4755135,19.9544073 17.1326405,19.2410999 17.1326405,18.1711911 C17.1326405,17.1012823 16.4755135,16.3880272 15.4897989,16.3880272 Z" id="路径" fill="#FFFFFF"></path>
                        <path d="M15.4897989,23.5207352 L7.27549466,23.5207352 C6.28978008,23.5207352 5.63265306,24.2340426 5.63265306,25.3039514 C5.63265306,26.3738602 6.28978008,27.0871153 7.27549466,27.0871153 L15.4897989,27.0871153 C16.4755135,27.0871153 17.1326405,26.3738602 17.1326405,25.3039514 C17.1326405,24.2340426 16.4755135,23.5207352 15.4897989,23.5207352 L15.4897989,23.5207352 Z" id="路径" fill="#FFFFFF"></path>
                    </g>
                </g>
            </g>
        </g>
    </g>
</svg>