<?xml version="1.0" encoding="UTF-8"?>
<svg width="174px" height="108px" viewBox="0 0 174 108" version="1.1" xmlns="http://www.w3.org/2000/svg" xmlns:xlink="http://www.w3.org/1999/xlink">
    <title>ic-首页-风险查询</title>
    <defs>
        <linearGradient x1="-1.43114687e-14%" y1="56.0590177%" x2="98.0970724%" y2="56.262391%" id="linearGradient-1">
            <stop stop-color="#4977F6" offset="0%"></stop>
            <stop stop-color="#90B9F7" offset="53.4728845%"></stop>
            <stop stop-color="#4977F6" offset="100%"></stop>
        </linearGradient>
    </defs>
    <g id="页面-1" stroke="none" stroke-width="1" fill="none" fill-rule="evenodd">
        <g id="嘉兴跨电商综合试验区首页" transform="translate(-736.000000, -1653.000000)">
            <g id="ic-首页-风险查询" transform="translate(738.000000, 1653.000000)">
                <g id="编组-16备份-2" transform="translate(0.000000, 17.833333)">
                    <g id="编组-14" transform="translate(0.000000, 5.998210)" stroke-width="1.40495868">
                        <polygon id="路径-7" stroke="#BDD4FB" points="0 42.5687771 90.9958506 73.4654701 170 35.7028453 77.593361 -2.56541301e-13"></polygon>
                        <polygon id="路径-7备份" stroke="#CEE0FC" points="-6.00127587e-14 49.9010741 90.9958506 83.1684568 170 42.2772989 77.593361 8.31684568"></polygon>
                    </g>
                    <g id="编组-15" transform="translate(13.909091, 0.000000)">
                        <path d="M0,35.3591954 L0.140495868,45.5032269 L74.2714814,72.5329753 C76.624846,72.5329753 77.8015283,72.5329753 77.8015283,72.5329753 C77.8015283,72.5329753 98.7464734,61.9058947 140.636364,40.6517336 L140.636364,29.2097701 L63.3636364,0 L0,35.3591954 Z" id="路径-8" fill="url(#linearGradient-1)"></path>
                        <polygon id="路径-10" fill="#DEEAFD" points="0.140495868 34.6535236 72.1534532 59.6040607 78.5075377 59.6040607 140.636364 29.1089599 63.6813406 -1.41860085e-13"></polygon>
                    </g>
                </g>
                <path d="M47,48.5462963 C47,52.3764933 64.0131795,55.4814815 85,55.4814815 C105.98682,55.4814815 123,52.3764933 123,48.5462963 C123,44.7160993 105.98682,41.6111111 85,41.6111111 C64.0131795,41.6111111 47,44.7160993 47,48.5462963 Z" id="路径备份-6" fill="#5392FF" fill-rule="nonzero" opacity="0.221888951"></path>
                <g id="编组-34" transform="translate(62.000000, 0.000000)" fill-rule="nonzero">
                    <g id="编组-33">
                        <path d="M21.2680684,0 C12.4472106,3.05683092 1.27412393,4.5852464 1.27412393,4.5852464 C0.588057191,4.68077239 0,5.34945412 0,6.11366189 L0,23.2128099 C0,23.4038618 0.294028595,27.1293745 2.84227646,31.4280431 C4.31241944,34.0072442 7.44872444,36.2998674 9.89896275,38.3059127 C12.9372583,40.7895878 16.6616204,42.7001072 20.9740398,44.0374707 L21.366078,44.1329966 L21.7581161,44.0374707 C26.0705354,42.7001072 29.6968881,40.7895878 32.7351836,38.3059127 C35.185422,36.2998674 38.321727,34.0072442 39.7918699,31.4280431 C42.4381273,27.0338486 42.6341463,23.3083359 42.6341463,23.117284 L42.6341463,6.0181359 C42.6341463,5.34945412 42.0460892,4.5852464 41.3600225,4.48972047 C41.2620129,4.58524646 31.5590693,3.05683097 21.2680684,0 Z" id="路径" fill="#4883F0"></path>
                        <g id="编组-32" transform="translate(14.585366, 9.929924)">
                            <path d="M4.25753487,1.50916908 C4.5042549,0.635439637 5.49113501,0 6.39577514,0 L8.8629754,0 C9.76761548,0 10.1788156,0.63543959 9.84985551,1.42973911 L7.79385527,6.11610624 L9.68537546,6.11610624 C12.3992957,6.11610624 13.1394558,7.70470523 11.4124156,9.69045402 L4.83321495,16.9980095 C4.25753487,17.6334491 3.10617477,17.792309 2.61273471,17.4745892 L5.73785503,10.3258936 L2.85945474,10.3258936 C1.95481466,10.3258936 1.46137461,9.69045402 1.70809463,8.81672453 L4.25753487,1.50916908 L4.25753487,1.50916908 Z" id="路径" fill="#DAE9FF"></path>
                            <path d="M2.61273471,1.50916908 C2.85945474,0.635439637 3.84633485,4.49924585e-13 4.75097493,4.49924585e-13 L7.21817519,4.49924585e-13 C8.12281527,4.49924585e-13 8.53401535,0.63543959 8.2050553,1.42973911 L6.14905511,6.11610624 L9.68537546,6.11610624 C11.4946557,6.11610624 11.9880957,7.22812553 10.8367356,8.49900476 L3.10617477,17.2362993 C2.53049469,17.8717389 2.20153469,17.792309 2.44825471,16.9185795 L4.09305487,10.3258936 L1.21465458,10.3258936 C0.310014499,10.3258936 -0.183425554,9.69045402 0.0632944243,8.81672453 L2.61273471,1.50916908 L2.61273471,1.50916908 Z" id="路径" fill="#FFFFFF"></path>
                        </g>
                    </g>
                    <g id="编组-31" transform="translate(21.000000, 23.777778)">
                        <path d="M21.5074748,19.0155181 L17.8955031,15.4169007 C20.6865634,11.654677 20.3581892,6.25672691 16.9104286,2.82166773 C13.134342,-0.940555911 6.89552113,-0.940555911 2.95522334,2.82166773 C1.14923749,4.62100042 0,7.07461411 0,9.69178608 C0,12.3089581 0.985074447,14.7625718 2.95522334,16.5619044 C4.7612092,18.3612371 7.22389531,19.5062409 9.85074447,19.5062409 C11.9850564,19.5062409 13.9552053,18.8519599 15.5970281,17.7069082 L19.2089517,21.3055736 C19.5373259,21.6326901 20.0298631,21.7962963 20.3581892,21.7962963 C20.6865153,21.7962963 21.1791006,21.6326901 21.5074748,21.3055736 C22.1641751,20.8148508 22.1641751,19.6697991 21.5074748,19.0155181 L21.5074748,19.0155181 Z" id="路径" fill="#F6C84E"></path>
                        <path d="M5.10000128,14.8543906 C3.69998334,13.4564734 3,11.7091152 3,9.96170591 C3,8.21429659 3.69998334,6.29221802 5.10000128,5.06907245 C6.49996796,3.67115523 8.2500032,2.97222222 9.99998718,2.97222222 C11.7499712,2.97222222 13.5,3.67115523 14.8999731,5.06907245 C17.700009,7.86485568 17.700009,12.2333278 14.8999731,15.029111 C12.4500058,17.4754533 7.72500288,17.4754533 5.10000128,14.8543906 L5.10000128,14.8543906 Z" id="路径" fill="#FFFFFF"></path>
                    </g>
                </g>
            </g>
        </g>
    </g>
</svg>