<?xml version="1.0" encoding="UTF-8"?>
<svg width="174px" height="108px" viewBox="0 0 174 108" version="1.1" xmlns="http://www.w3.org/2000/svg" xmlns:xlink="http://www.w3.org/1999/xlink">
    <title>ic-首页-海外仓查询</title>
    <defs>
        <linearGradient x1="-1.43114687e-14%" y1="56.0590177%" x2="98.0970724%" y2="56.262391%" id="linearGradient-1">
            <stop stop-color="#4977F6" offset="0%"></stop>
            <stop stop-color="#90B9F7" offset="53.4728845%"></stop>
            <stop stop-color="#4977F6" offset="100%"></stop>
        </linearGradient>
    </defs>
    <g id="页面-1" stroke="none" stroke-width="1" fill="none" fill-rule="evenodd">
        <g id="嘉兴跨电商综合试验区首页" transform="translate(-530.000000, -1653.000000)">
            <g id="ic-首页-海外仓查询" transform="translate(532.000000, 1653.000000)">
                <g id="编组-16备份" transform="translate(0.000000, 17.833333)">
                    <g id="编组-14" transform="translate(0.000000, 5.998210)" stroke-width="1.40495868">
                        <polygon id="路径-7" stroke="#BDD4FB" points="0 42.5687771 90.9958506 73.4654701 170 35.7028453 77.593361 -2.56541301e-13"></polygon>
                        <polygon id="路径-7备份" stroke="#CEE0FC" points="-6.00127587e-14 49.9010741 90.9958506 83.1684568 170 42.2772989 77.593361 8.31684568"></polygon>
                    </g>
                    <g id="编组-15" transform="translate(13.909091, 0.000000)">
                        <path d="M0,35.3591954 L0.140495868,45.5032269 L74.2714814,72.5329753 C76.624846,72.5329753 77.8015283,72.5329753 77.8015283,72.5329753 C77.8015283,72.5329753 98.7464734,61.9058947 140.636364,40.6517336 L140.636364,29.2097701 L63.3636364,0 L0,35.3591954 Z" id="路径-8" fill="url(#linearGradient-1)"></path>
                        <polygon id="路径-10" fill="#DEEAFD" points="0.140495868 34.6535236 72.1534532 59.6040607 78.5075377 59.6040607 140.636364 29.1089599 63.6813406 -1.41860085e-13"></polygon>
                    </g>
                </g>
                <path d="M47,48.5462963 C47,52.3764933 64.0131795,55.4814815 85,55.4814815 C105.98682,55.4814815 123,52.3764933 123,48.5462963 C123,44.7160993 105.98682,41.6111111 85,41.6111111 C64.0131795,41.6111111 47,44.7160993 47,48.5462963 Z" id="路径备份-3" fill="#5392FF" fill-rule="nonzero" opacity="0.221888951"></path>
                <g id="编组-30" transform="translate(62.000000, 0.000000)" fill-rule="nonzero">
                    <polygon id="路径" fill="#FFFFFF" points="21.82658 1.90793304 1.60308214 18.9884765 2.34296621 44.3064451 26.5125124 45.7601084 42.1733918 44.5487223 44.023102 33.5251092 43.1599039 19.3518923"></polygon>
                    <path d="M39.7071116,48.5462963 L6.41232858,48.5462963 C2.83622225,48.5462963 0,45.6389698 0,42.1259502 L0,20.6844169 C0,18.8673379 0.863198077,17.0502588 2.2196522,15.8388727 L18.7437297,1.54451722 C21.2100099,-0.514839075 24.7861162,-0.514839075 27.1290824,1.54451722 L43.7764739,15.9600113 C45.2562421,17.1713974 45.9961261,18.9884765 45.9961261,20.8055556 L45.9961261,42.2470888 C46.1194401,45.6389698 43.2832179,48.5462963 39.7071116,48.5462963 Z M23.0597201,4.81525958 C22.689778,4.81525958 22.319836,4.93639819 22.073208,5.1786754 L5.30250248,19.5941695 C4.93256044,19.8364467 4.80924643,20.3210011 4.80924643,20.6844169 L4.80924643,42.1259502 C4.80924643,42.9739204 5.5491305,43.5796135 6.28901456,43.5796135 L39.5837976,43.5796135 C40.4469956,43.5796135 41.0635657,42.8527818 41.0635657,42.1259502 L41.0635657,20.6844169 C41.0635657,20.1998625 40.8169377,19.8364467 40.5703096,19.5941695 L24.0462322,5.1786754 C23.6762901,4.93639819 23.3063481,4.81525958 23.0597201,4.81525958 Z" id="形状" fill="#4883F0"></path>
                </g>
                <g id="编组-22" transform="translate(75.000000, 17.833333)" fill-rule="nonzero">
                    <g id="编组-31">
                        <path d="M21.5074748,19.0155181 L17.8955031,15.4169007 C20.6865634,11.654677 20.3581892,6.25672691 16.9104286,2.82166773 C13.134342,-0.940555911 6.89552113,-0.940555911 2.95522334,2.82166773 C1.14923749,4.62100042 0,7.07461411 0,9.69178608 C0,12.3089581 0.985074447,14.7625718 2.95522334,16.5619044 C4.7612092,18.3612371 7.22389531,19.5062409 9.85074447,19.5062409 C11.9850564,19.5062409 13.9552053,18.8519599 15.5970281,17.7069082 L19.2089517,21.3055736 C19.5373259,21.6326901 20.0298631,21.7962963 20.3581892,21.7962963 C20.6865153,21.7962963 21.1791006,21.6326901 21.5074748,21.3055736 C22.1641751,20.8148508 22.1641751,19.6697991 21.5074748,19.0155181 L21.5074748,19.0155181 Z" id="路径" fill="#F6C84E"></path>
                        <path d="M5.10000128,14.8543906 C3.69998334,13.4564734 3,11.7091152 3,9.96170591 C3,8.21429659 3.69998334,6.29221802 5.10000128,5.06907245 C6.49996796,3.67115523 8.2500032,2.97222222 9.99998718,2.97222222 C11.7499712,2.97222222 13.5,3.67115523 14.8999731,5.06907245 C17.700009,7.86485568 17.700009,12.2333278 14.8999731,15.029111 C12.4500058,17.4754533 7.72500288,17.4754533 5.10000128,14.8543906 L5.10000128,14.8543906 Z" id="路径" fill="#FFFFFF"></path>
                    </g>
                </g>
            </g>
        </g>
    </g>
</svg>