<?xml version="1.0" encoding="UTF-8"?>
<svg width="174px" height="108px" viewBox="0 0 174 108" version="1.1" xmlns="http://www.w3.org/2000/svg" xmlns:xlink="http://www.w3.org/1999/xlink">
    <title>ic-首页-通关查询</title>
    <defs>
        <linearGradient x1="-1.43114687e-14%" y1="56.2257161%" x2="98.0970724%" y2="56.4346847%" id="linearGradient-1">
            <stop stop-color="#4977F6" offset="0%"></stop>
            <stop stop-color="#90B9F7" offset="53.4728845%"></stop>
            <stop stop-color="#4977F6" offset="100%"></stop>
        </linearGradient>
    </defs>
    <g id="页面-1" stroke="none" stroke-width="1" fill="none" fill-rule="evenodd">
        <g id="嘉兴跨电商综合试验区首页" transform="translate(-118.000000, -1653.000000)">
            <g id="ic-首页-通关查询" transform="translate(120.000000, 1653.000000)">
                <g id="编组-16" transform="translate(0.000000, 16.615060)">
                    <g id="编组-14" transform="translate(0.000000, 6.080163)" stroke-width="1.40495868">
                        <polygon id="路径-7" stroke="#BDD4FB" points="0 43.1503893 90.9958506 74.4692202 170 36.1906491 77.593361 -2.60046395e-13"></polygon>
                        <polygon id="路径-7备份" stroke="#CEE0FC" points="-6.00127587e-14 50.5828666 90.9958506 84.3047776 170 42.8549286 77.593361 8.43047776"></polygon>
                    </g>
                    <g id="编组-15" transform="translate(13.909091, 0.000000)">
                        <path d="M0,35.8423039 L0.140495868,46.1249321 L74.2714814,73.5239849 C76.624846,73.5239849 77.8015283,73.5239849 77.8015283,73.5239849 C77.8015283,73.5239849 98.7464734,62.7517077 140.636364,41.2071534 L140.636364,29.6088598 L63.3636364,0 L0,35.8423039 Z" id="路径-8" fill="url(#linearGradient-1)"></path>
                        <polygon id="路径-10" fill="#DEEAFD" points="0.140495868 35.1269907 72.1534532 60.418424 78.5075377 60.418424 140.636364 29.5066722 63.6813406 -1.43798303e-13"></polygon>
                    </g>
                </g>
                <path d="M101.161539,48.1819791 L67.0331995,48.1819791 C64.8061406,48.1819791 63,46.5865193 63,44.61924 L63,3.56273917 C63,1.59545987 64.8061406,0 67.0331995,0 L101.161539,0 C103.388598,0 105.194738,1.59545987 105.194738,3.56273917 L105.194738,44.61924 C105.194738,46.5865193 103.388598,48.1819791 101.161539,48.1819791" id="Fill-1" fill="#5F94F7"></path>
                <path d="M81.2403465,21.7816418 L67.7720366,21.7816418 C66.7099642,21.7816418 65.8479923,20.9074419 65.8479923,19.8303027 C65.8479923,18.7531636 66.7099642,17.8789637 67.7720366,17.8789637 L81.2403465,17.8789637 C82.3024189,17.8789637 83.1643907,18.7531636 83.1643907,19.8303027 C83.1643907,20.9074419 82.3024189,21.7816418 81.2403465,21.7816418" id="Fill-11" fill="#FFFFFF"></path>
                <path d="M78.5214795,32.5140065 L67.6044523,32.5140065 C66.634734,32.5140065 65.8477999,31.7168845 65.8477999,30.732434 L65.8477999,30.392901 C65.8477999,29.4084504 66.634734,28.6113284 67.6044523,28.6113284 L78.5214795,28.6113284 C79.4921598,28.6113284 80.2781319,29.4084504 80.2781319,30.392901 L80.2781319,30.732434 C80.2781319,31.7168845 79.4921598,32.5140065 78.5214795,32.5140065" id="Fill-13" fill="#FFFFFF"></path>
                <path d="M90.8605678,12.0249466 L67.7720366,12.0249466 C66.7099642,12.0249466 65.8479923,11.1507467 65.8479923,10.0736075 C65.8479923,8.99646838 66.7099642,8.12226849 67.7720366,8.12226849 L90.8605678,8.12226849 C91.9226402,8.12226849 92.784612,8.99646838 92.784612,10.0736075 C92.784612,11.1507467 91.9226402,12.0249466 90.8605678,12.0249466" id="Fill-15" fill="#FFFFFF"></path>
                <path d="M49,50.787691 C49,54.6683411 66.0131795,57.8142296 87,57.8142296 C107.98682,57.8142296 125,54.6683411 125,50.787691 C125,46.9070409 107.98682,43.7611524 87,43.7611524 C66.0131795,43.7611524 49,46.9070409 49,50.787691 Z" id="路径备份-5" fill="#5392FF" fill-rule="nonzero" opacity="0.221888951"></path>
                <g id="编组-22备份" transform="translate(87.000000, 28.704284)" fill-rule="nonzero">
                    <g id="编组-31">
                        <path d="M21.5074748,19.2659993 L17.8955031,15.6199792 C20.6865634,11.8081978 20.3581892,6.33914338 16.9104286,2.85883603 C13.134342,-0.952945344 6.89552113,-0.952945344 2.95522334,2.85883603 C1.14923749,4.68187035 0,7.16780417 0,9.81945073 C0,12.4710973 0.985074447,14.9570311 2.95522334,16.7800654 C4.7612092,18.6030998 7.22389531,19.763186 9.85074447,19.763186 C11.9850564,19.763186 13.9552053,19.1002865 15.5970281,17.9401517 L19.2089517,21.5862203 C19.5373259,21.9176458 20.0298631,22.0834071 20.3581892,22.0834071 C20.6865153,22.0834071 21.1791006,21.9176458 21.5074748,21.5862203 C22.1641751,21.0890336 22.1641751,19.9288988 21.5074748,19.2659993 L21.5074748,19.2659993 Z" id="路径" fill="#F6C84E"></path>
                        <path d="M5.10000128,15.0500594 C3.69998334,13.6337282 3,11.8633531 3,10.0929261 C3,8.32249907 3.69998334,6.375102 5.10000128,5.13584459 C6.49996796,3.71951337 8.2500032,3.0113737 9.99998718,3.0113737 C11.7499712,3.0113737 13.5,3.71951337 14.8999731,5.13584459 C17.700009,7.96845517 17.700009,12.3944708 14.8999731,15.2270814 C12.4500058,17.705648 7.72500288,17.705648 5.10000128,15.0500594 L5.10000128,15.0500594 Z" id="路径" fill="#FFFFFF"></path>
                    </g>
                </g>
            </g>
        </g>
    </g>
</svg>