<?xml version="1.0" encoding="UTF-8"?>
<svg width="174px" height="108px" viewBox="0 0 174 108" version="1.1" xmlns="http://www.w3.org/2000/svg" xmlns:xlink="http://www.w3.org/1999/xlink">
    <title>ic-首页-HS编码查询</title>
    <defs>
        <linearGradient x1="-1.43114687e-14%" y1="55.3438475%" x2="98.0970724%" y2="55.5232158%" id="linearGradient-1">
            <stop stop-color="#4977F6" offset="0%"></stop>
            <stop stop-color="#90B9F7" offset="53.4728845%"></stop>
            <stop stop-color="#4977F6" offset="100%"></stop>
        </linearGradient>
    </defs>
    <g id="页面-1" stroke="none" stroke-width="1" fill="none" fill-rule="evenodd">
        <g id="嘉兴跨电商综合试验区首页" transform="translate(-1148.000000, -1653.000000)">
            <g id="ic-首页-HS编码查询" transform="translate(1150.000000, 1653.000000)">
                <g id="编组-16" transform="translate(0.000000, 23.260870)">
                    <g id="编组-14" transform="translate(0.000000, 5.633101)" stroke-width="1.40495868">
                        <polygon id="路径-7" stroke="#BDD4FB" points="0 39.9776341 90.9958506 68.9936589 170 33.5296286 77.593361 -2.40925744e-13"></polygon>
                        <polygon id="路径-7备份" stroke="#CEE0FC" points="-6.00127587e-14 46.8636174 90.9958506 78.106029 170 39.7038981 77.593361 7.8106029"></polygon>
                    </g>
                    <g id="编组-15" transform="translate(13.909091, 0.000000)">
                        <path d="M0,33.2068966 L0.140495868,42.7334652 L74.2714814,68.1179246 C76.624846,68.1179246 77.8015283,68.1179246 77.8015283,68.1179246 C77.8015283,68.1179246 98.7464734,58.1377098 140.636364,38.1772802 L140.636364,27.4317841 L63.3636364,0 L0,33.2068966 Z" id="路径-8" fill="url(#linearGradient-1)"></path>
                        <polygon id="路径-10" fill="#DEEAFD" points="0.140495868 32.5441787 72.1534532 55.9759874 78.5075377 55.9759874 140.636364 27.3371101 63.6813406 -1.33225123e-13"></polygon>
                    </g>
                </g>
                <path d="M47,52.1043478 C47,55.7014024 64.0131795,58.6173913 85,58.6173913 C105.98682,58.6173913 123,55.7014024 123,52.1043478 C123,48.5072932 105.98682,45.5913043 85,45.5913043 C64.0131795,45.5913043 47,48.5072932 47,52.1043478 Z" id="路径备份-2" fill="#5392FF" fill-rule="nonzero" opacity="0.221888951"></path>
                <g id="编组-21" transform="translate(63.000000, 0.000000)">
                    <path d="M23,1.14383971 C23.9543923,1.14383971 24.8184324,1.53068363 25.4438744,2.15612562 C26.0693164,2.78156762 26.4561603,3.64560769 26.4561603,4.6 L26.4561603,4.6 L26.4561603,6.29963855 L19.5438397,6.29963855 L19.5438397,4.6 C19.5438397,3.64560769 19.9306836,2.78156762 20.5561256,2.15612562 C21.1815676,1.53068363 22.0456077,1.14383971 23,1.14383971 Z" id="矩形" stroke="#5F94F7" stroke-width="2.28767943"></path>
                    <rect id="矩形" fill="#4883F0" x="0" y="7.44347826" width="46" height="44.6608696" rx="4.57535885"></rect>
                    <rect id="矩形" fill="#FFFFFF" x="3.83333333" y="9.30434783" width="38.3333333" height="39.0782609" rx="4.57535885"></rect>
                    <rect id="矩形" fill="#5F94F7" x="16.1" y="5.5826087" width="13.8" height="5.5826087"></rect>
                    <rect id="矩形" fill="#A5C6FA" x="9.2" y="33.4956522" width="27.6" height="1.86086957"></rect>
                    <rect id="矩形备份-2" fill="#A5C6FA" x="9.2" y="39.0782609" width="27.6" height="1.86086957"></rect>
                    <g id="编组-19" transform="translate(11.500000, 14.886957)" stroke="#F6C84E">
                        <path d="M22.8172775,2.39716544 C21.5921611,1.75440757 20.1213604,1.27360444 18.6968322,1.30397095 C17.606126,1.32826416 15.4225104,1.9629243 15.045721,3.36180835 C14.9168194,3.83957483 15.0424158,4.25458385 15.1052141,4.42159967 C15.5106482,5.50770864 16.9186507,5.96320634 18.4103841,6.44603391 C19.4129523,6.76994339 19.4889712,6.64544068 20.4540809,6.99060672 C21.6186025,7.40662795 22.4459967,7.71535417 22.8172775,8.47046814 C23.1742358,9.19825225 22.9032119,9.92299971 22.8745671,9.99790377 C22.3457399,11.3471892 20.3494172,11.6812208 19.9538985,11.7085507 C17.1797591,11.9069453 15.045721,10.0667345 14.7857143,9.80963139" id="Stroke-1" stroke-width="2.39145632"></path>
                        <g id="编组-17" stroke-width="2.54186603">
                            <line x1="0.821428571" y1="0" x2="0.821428571" y2="13.026087" id="Stroke-3"></line>
                            <line x1="9.03571429" y1="0" x2="9.03571429" y2="13.026087" id="Stroke-5"></line>
                            <line x1="8.21428571" y1="5.86173913" x2="1.64285714" y2="5.86173913" id="Stroke-7"></line>
                        </g>
                    </g>
                </g>
            </g>
        </g>
    </g>
</svg>