<?xml version="1.0" encoding="UTF-8"?>
<svg width="174px" height="108px" viewBox="0 0 174 108" version="1.1" xmlns="http://www.w3.org/2000/svg" xmlns:xlink="http://www.w3.org/1999/xlink">
    <title>ic-首页-融资申请</title>
    <defs>
        <linearGradient x1="-1.43114687e-14%" y1="56.534059%" x2="98.0970724%" y2="56.7533773%" id="linearGradient-1">
            <stop stop-color="#4977F6" offset="0%"></stop>
            <stop stop-color="#90B9F7" offset="53.4728845%"></stop>
            <stop stop-color="#4977F6" offset="100%"></stop>
        </linearGradient>
    </defs>
    <g id="页面-1" stroke="none" stroke-width="1" fill="none" fill-rule="evenodd">
        <g id="嘉兴跨电商综合试验区首页" transform="translate(-942.000000, -1653.000000)">
            <g id="ic-首页-融资申请" transform="translate(944.000000, 1653.000000)">
                <g id="编组-16备份-3" transform="translate(0.000000, 14.403846)">
                    <g id="编组-14" transform="translate(0.000000, 6.228910)" stroke-width="1.40495868">
                        <polygon id="路径-7" stroke="#BDD4FB" points="0 44.2060377 90.9958506 76.2910651 170 37.0760317 77.593361 -2.66408274e-13"></polygon>
                        <polygon id="路径-7备份" stroke="#CEE0FC" points="-6.00127587e-14 51.8203461 90.9958506 86.3672436 170 43.9033488 77.593361 8.63672436"></polygon>
                    </g>
                    <g id="编组-15" transform="translate(13.909091, 0.000000)">
                        <path d="M0,36.7191645 L0.140495868,47.253351 L74.2714814,75.3227051 C76.624846,75.3227051 77.8015283,75.3227051 77.8015283,75.3227051 C77.8015283,75.3227051 98.7464734,64.2868907 140.636364,42.2152618 L140.636364,30.3332228 L63.3636364,0 L0,36.7191645 Z" id="路径-8" fill="url(#linearGradient-1)"></path>
                        <polygon id="路径-10" fill="#DEEAFD" points="0.140495868 35.9863515 72.1534532 61.8965245 78.5075377 61.8965245 140.636364 30.2285352 63.6813406 -1.47316242e-13"></polygon>
                    </g>
                </g>
                <path d="M47,46.2980769 C47,50.2755892 64.0131795,53.5 85,53.5 C105.98682,53.5 123,50.2755892 123,46.2980769 C123,42.3205646 105.98682,39.0961538 85,39.0961538 C64.0131795,39.0961538 47,42.3205646 47,46.2980769 Z" id="路径备份-7" fill="#5392FF" fill-rule="nonzero" opacity="0.221888951"></path>
                <g id="编组-35" transform="translate(62.000000, 0.000000)" fill-rule="nonzero">
                    <path d="M0,43.208071 L2.96722782,43.208071 L2.96722782,24.1965197 L14.8361391,24.1965197 L14.7945979,37.1986924 C14.7945979,37.1986924 15.1877556,39.8914194 11.8689113,39.7514253 L11.8689113,43.208071 L16.319753,43.208071 C17.7633094,43.3014004 17.8033669,41.4797481 17.8033669,41.4797481 L17.8033669,20.7398741 L0,20.7398741 L0,43.208071 Z" id="路径" fill="#4883F0"></path>
                    <polygon id="路径" fill="#4883F0" points="1.48361391 6.91329135 1.48361391 17.2832284 16.319753 17.2832284 16.319753 6.91329135"></polygon>
                    <polygon id="路径" fill="#FFFFFF" points="13.3525252 13.8265827 4.45084173 13.8265827 4.45084173 10.369937 13.3525252 10.369937"></polygon>
                    <polygon id="路径" fill="#4883F0" points="0 3.45664568 19.2869809 3.45664568 19.2869809 0 0 0"></polygon>
                    <path d="M22.694842,19.701152 L23.7378226,20.7398741 L23.7378226,10.369937 L26.7050504,10.369937 L26.7050504,19.7357185 L29.1144394,16.7768298 C29.1218575,16.7664599 29.1277919,16.7560899 29.13521,16.74572 L29.2776369,16.5763443 L29.6722782,16.0924139 L29.6722782,10.369937 L32.6395061,10.369937 L32.5341695,17.1985406 L34.7536559,19.7841115 L35.6082175,18.6416901 L35.6082175,16.7301651 L34.6720571,15.5116975 C34.6720571,15.5116975 33.7284787,13.5725192 34.6720571,11.7750635 C34.9658127,11.2168152 35.3278145,10.6551103 35.6082175,10.2403128 L35.6082175,5.18496851 L29.6737618,5.18496851 L29.6737618,0 L26.706534,0 L26.706534,5.18496851 L20.7720784,5.18496851 L20.7720784,20.4322326 L21.2052936,19.8342329 C21.5836152,19.3088227 22.2512414,19.2483314 22.694842,19.701152 Z" id="路径" fill="#4883F0"></path>
                    <path d="M13.3525252,32.8381339 L10.3852974,32.8381339 L13.3525252,25.9248426 L10.3852974,25.9248426 L8.90168347,31.1098111 C8.50852578,29.4074131 7.41806956,25.9248426 7.41806956,25.9248426 L4.45084173,25.9248426 L7.41806956,32.8381339 L4.45084173,32.8381339 L4.45084173,36.2947796 L7.41806956,36.2947796 L7.41806956,43.208071 L10.3852974,43.208071 L10.3852974,39.7514253 L10.3852974,36.2947796 L13.3525252,36.2947796 L13.3525252,32.8381339 Z" id="路径" fill="#4883F0"></path>
                    <path d="M45.9920313,22.4681969 C45.8050959,20.5151921 45.2665441,20.7398741 44.5084173,20.7398741 C44.0559151,20.7398741 43.5040107,21.6558852 43.2547636,22.0568561 C43.2547636,22.0551277 43.25328,22.0533994 43.25328,22.0516711 L36.9597898,31.2394353 L35.2640191,33.48107 C35.1023051,33.6158792 34.8604761,33.8094514 34.4999579,33.486255 L34.318957,33.2166366 C34.2551616,33.1509604 34.207686,33.0697292 34.1646612,32.9850414 L31.1989169,28.5518933 L27.0685358,33.5087232 L26.3638192,34.3988095 C26.3623356,34.3970811 26.360852,34.3936245 26.3593684,34.3918962 C26.2154578,34.6839827 25.9558254,34.8896531 25.6472337,34.8896531 C25.377216,34.8896531 25.1487394,34.7306474 24.9959272,34.4973239 C24.9899927,34.5111504 24.981091,34.5232487 24.9751566,34.5370753 L22.610276,31.837435 C22.3639961,31.4883138 21.7824195,31.1547475 21.4486063,30.8730309 C20.8329065,30.3528057 20.7720784,31.1080828 20.7720784,31.1080828 L20.7720784,41.4780198 L44.509901,41.4780198 C44.509901,41.4780198 45.9935149,41.3708638 45.9935149,39.749697 C45.9920313,36.4883518 46.0098346,23.4153178 45.9920313,22.4681969 Z" id="路径" fill="#4883F0"></path>
                    <path d="M25.8786775,30.5636611 L26.4365163,29.7928291 L30.6618487,24.6044039 L33.1810251,27.5390961 C33.2463041,27.666992 33.3293865,27.7845179 33.4347231,27.881304 L33.6246257,28.0558646 L34.0444884,28.54498 C34.2596124,28.7990435 34.5414991,28.9165694 34.8219021,28.9079278 C35.1705514,28.9459509 35.5266187,28.7817602 35.7565789,28.4291824 L42.6034571,19.2068517 L45.9935149,13.8265827 L37.0918314,13.8265827 L36.9063797,13.9907734 C36.9063797,13.9907734 36.9790767,14.5230968 37.0977659,14.7304956 C37.0814461,14.7356805 37.0651264,14.7425938 37.0488066,14.7460505 L39.5190238,17.672101 L34.7536559,24.091092 L32.3249799,21.2600992 C32.2730534,21.1546715 32.2137089,21.0527005 32.1335937,20.964556 L31.3606309,20.1055796 C30.9333501,19.6320191 30.2642402,19.657944 29.865148,20.1643426 L29.2791205,20.8833249 L29.1366936,21.0527005 C29.1292755,21.0613421 29.1233411,21.0734404 29.115923,21.0838103 L24.9024595,26.2549522 L22.6963256,24.0064042 C22.2527251,23.5535836 21.5850988,23.6140749 21.20381,24.1412134 L20.5139296,25.0935193 C20.1326408,25.6206578 20.1845673,26.4139579 20.6266842,26.8650502 L24.3876455,30.6967419 C24.8297624,31.1512908 25.4988723,31.0907995 25.8786775,30.5636611 Z" id="路径" fill="#F6C84E"></path>
                </g>
            </g>
        </g>
    </g>
</svg>